<svg width="800" height="800" viewBox="0 0 800 800" fill="none" xmlns="http://www.w3.org/2000/svg">
<path d="M571.953 311.953C417.656 278.125 544.141 64.1406 332.734 81.875C121.328 99.6094 -79.1405 586.406 296.172 700.391C671.484 814.375 864.922 376.172 571.953 311.953Z" fill="#FFA500"/>
<path d="M324.265 442.995C326.543 441.604 328.505 439.755 330.026 437.565C331.548 435.376 332.595 432.894 333.102 430.278C333.608 427.662 333.562 424.969 332.968 422.372C332.373 419.774 331.242 417.329 329.647 415.192C322.666 406.666 316.968 397.171 312.731 387.005C334.898 380.737 354.405 367.417 368.285 349.073C382.164 330.728 389.656 308.362 389.62 285.379C389.682 268.105 385.385 251.092 377.126 235.908C386.09 232.019 395.524 229.311 405.19 227.855C421.471 225.864 437.991 227.36 453.646 232.243C469.301 237.126 483.732 245.284 495.976 256.173C508.22 267.061 517.994 280.43 524.647 295.386C531.3 310.342 534.678 326.542 534.556 342.903C534.609 369.246 525.506 394.792 508.798 415.192C507.203 417.329 506.072 419.774 505.478 422.372C504.883 424.969 504.837 427.662 505.343 430.278C505.85 432.894 506.897 435.376 508.419 437.565C509.94 439.755 511.903 441.604 514.18 442.995C532.289 455.296 547.113 471.822 557.363 491.137C567.614 510.451 572.982 531.971 573 553.825C573 558.911 570.975 563.788 567.37 567.384C563.765 570.98 558.876 573 553.778 573H284.667C279.569 573 274.68 570.98 271.075 567.384C267.47 563.788 265.445 558.911 265.445 553.825C265.463 531.971 270.831 510.451 281.082 491.137C291.333 471.822 306.156 455.296 324.265 442.995Z" fill="#2AEFC8"/>
<path d="M227 266.204H303.889ZM265.444 304.554V227.855Z" fill="#2AEFC8"/>
<path d="M227 266.204H303.889M265.444 304.554V227.855" stroke="#151B28" stroke-width="21" stroke-linecap="round" stroke-linejoin="round"/>
<path d="M380.778 234.374C388.623 231.23 396.82 229.041 405.19 227.855C421.471 225.864 437.991 227.36 453.646 232.243C469.301 237.126 483.732 245.284 495.976 256.173C508.22 267.061 517.994 280.43 524.647 295.386C531.3 310.342 534.678 326.542 534.556 342.903C534.609 369.246 525.506 394.792 508.798 415.192C507.203 417.329 506.072 419.774 505.478 422.372C504.883 424.969 504.837 427.662 505.343 430.278C505.85 432.894 506.897 435.376 508.419 437.565C509.94 439.755 511.903 441.604 514.18 442.995C532.289 455.296 547.113 471.822 557.363 491.137C567.614 510.451 572.982 531.971 573 553.825C573 558.911 570.975 563.788 567.37 567.384C563.765 570.98 558.876 573 553.778 573H284.667C279.569 573 274.68 570.98 271.075 567.384C267.47 563.788 265.445 558.911 265.445 553.825C265.463 531.971 270.831 510.451 281.082 491.137C291.333 471.822 306.156 455.296 324.265 442.995C326.543 441.604 328.505 439.755 330.026 437.565C331.548 435.376 332.595 432.894 333.102 430.278C333.608 427.662 333.562 424.969 332.968 422.372C332.373 419.774 331.242 417.329 329.647 415.192C321.256 405.117 314.745 393.622 310.425 381.253" stroke="#151B28" stroke-width="20" stroke-linecap="round" stroke-linejoin="round"/>
</svg>
