<svg width="800" height="800" viewBox="0 0 800 800" fill="none" xmlns="http://www.w3.org/2000/svg">
<path d="M571.953 311.953C417.656 278.125 544.141 64.1407 332.734 81.8751C121.328 99.6094 -79.1405 586.406 296.172 700.391C671.484 814.375 864.922 376.172 571.953 311.953Z" fill="#FFA500"/>
<path d="M467.031 629.922C466.015 629.922 464.922 629.687 463.984 629.219L442.5 619.297C440.947 618.569 439.702 617.314 438.986 615.755C438.271 614.196 438.132 612.433 438.594 610.781L445.937 584.375L429.844 606.953C428.855 608.331 427.415 609.319 425.775 609.747C424.134 610.175 422.395 610.016 420.859 609.297L404.844 601.875C403.595 601.288 402.537 600.361 401.791 599.2C401.045 598.04 400.641 596.692 400.625 595.312L400.547 581.328L389.219 590.234C387.89 591.25 386.328 591.797 384.765 591.797C383.75 591.797 382.656 591.562 381.719 591.094L282.89 545.234C281.353 544.528 280.112 543.304 279.383 541.777C278.655 540.249 278.486 538.514 278.906 536.875L290.703 491.328L265.703 530.391C265.044 531.411 264.143 532.251 263.079 532.838C262.016 533.424 260.823 533.737 259.609 533.75C258.594 533.75 257.578 533.515 256.562 533.047L219.453 515.859C218.55 515.431 217.743 514.823 217.084 514.071C216.424 513.32 215.925 512.441 215.618 511.49C215.311 510.539 215.201 509.534 215.296 508.539C215.392 507.544 215.69 506.579 216.172 505.703L315.156 330C316.054 328.412 317.521 327.223 319.26 326.672C320.999 326.121 322.882 326.25 324.531 327.031L539.453 426.797C542.89 428.359 544.531 432.344 543.203 435.859L473.594 625.234C472.89 627.109 471.406 628.672 469.531 629.453C468.906 629.766 467.969 629.922 467.031 629.922Z" fill="white"/>
<path d="M321.641 333.594L536.563 433.359L466.953 622.734L445.469 612.813L456.328 573.828C456.534 573.094 456.566 572.323 456.423 571.575C456.28 570.826 455.965 570.122 455.503 569.516C455.041 568.91 454.445 568.419 453.761 568.083C453.077 567.747 452.325 567.574 451.563 567.578C450 567.578 448.516 568.281 447.5 569.688L423.906 602.812L407.891 595.391L407.813 579.609C408.125 577.031 406.719 574.531 404.375 573.438C403.594 573.047 402.735 572.891 401.875 572.891C400.547 572.891 399.219 573.359 398.125 574.141L384.766 584.688L285.938 538.828L300.391 483.203C301.094 480.625 299.766 477.891 297.344 476.719C296.563 476.406 295.781 476.172 295 476.172C293.125 476.172 291.328 477.109 290.313 478.75L259.688 526.641L222.578 509.453L321.641 333.594ZM321.719 319.062C316.641 319.062 311.719 321.719 309.063 326.406L210.078 502.187C208.125 505.703 207.656 509.922 208.906 513.75C210.156 517.578 212.969 520.781 216.563 522.422L253.672 539.609C255.625 540.547 257.735 540.938 259.766 540.938C264.61 540.938 269.219 538.516 271.953 534.219L272.422 533.516L272.031 535C270.313 541.797 273.594 548.828 279.922 551.797L378.75 597.656C380.703 598.594 382.813 598.984 384.844 598.984C387.891 598.984 390.938 597.969 393.516 596.094C393.828 601.406 397.031 606.094 401.875 608.359L417.891 615.781C419.844 616.719 421.953 617.109 423.985 617.109C426.563 617.109 429.063 616.406 431.328 615.156C432.11 619.688 435.078 623.75 439.531 625.859L461.016 635.781C462.969 636.641 465 637.109 467.11 637.109C468.985 637.109 470.86 636.719 472.656 636.016C476.406 634.453 479.297 631.406 480.703 627.656L550.235 438.281C552.813 431.172 549.61 423.359 542.735 420.156L327.813 320.391C325.781 319.531 323.75 319.062 321.719 319.062Z" fill="#151B28"/>
<path d="M528.828 454.453L343.125 368.281C337.188 365.547 330.078 367.812 326.875 373.516L244.688 519.531L259.766 526.562L290.391 478.672C291.875 476.328 294.922 475.469 297.422 476.641C299.844 477.812 301.172 480.469 300.469 483.125L288.828 528.047L301.328 508.594C302.812 506.25 305.859 505.391 308.359 506.562C310.781 507.734 312.109 510.391 311.406 513.047L302.734 546.641L384.922 584.766L398.281 574.219C400.078 572.812 402.5 572.5 404.531 573.516C406.875 574.609 408.281 577.109 407.969 579.687L408.047 595.469L424.062 602.891L447.656 569.766C448.319 568.821 449.292 568.14 450.406 567.84C451.519 567.54 452.703 567.641 453.75 568.125C455.937 569.141 457.109 571.641 456.406 573.906L445.547 612.891L448.125 614.062L458.516 599.531C459.178 598.587 460.151 597.906 461.265 597.606C462.379 597.306 463.562 597.407 464.609 597.891C466.797 598.906 467.969 601.406 467.266 603.672L462.5 620.703L466.953 622.734L528.828 454.453Z" fill="#2AEFC8"/>
<path d="M562.5 405.312C560.625 405.312 558.828 404.922 557.11 404.141L330.469 298.906C327.379 297.458 324.988 294.846 323.817 291.64C322.646 288.435 322.79 284.896 324.219 281.797L342.031 243.438C342.316 242.809 342.722 242.244 343.227 241.774C343.731 241.304 344.324 240.938 344.971 240.699C345.617 240.459 346.305 240.35 346.994 240.377C347.683 240.405 348.359 240.569 348.985 240.859C349.063 240.859 349.063 240.937 349.141 240.937C369.766 250.547 391.485 255.781 410.157 255.781C428.047 255.781 441.641 251.016 448.438 242.422C448.828 241.641 449.141 240.937 449.532 240.156C449.922 239.297 450.391 238.516 450.782 237.656L453.047 232.969L453.985 231.016C455.938 226.875 457.813 222.656 459.766 217.969C462.344 211.875 464.61 206.016 466.485 200.703C467.4 195.457 468.947 190.342 471.094 185.469C471.172 185.234 471.25 185 471.328 184.844L471.641 184.219C481.25 163.594 500.547 149.766 519.688 149.766C525.391 149.766 530.782 150.938 535.86 153.281C547.032 158.437 555 168.672 558.281 181.953C561.485 194.844 559.844 209.141 553.75 222.344L553.438 222.969C553.36 223.203 553.203 223.359 553.125 223.594C550.782 228.438 547.891 232.891 544.453 236.953C541.641 241.797 538.672 247.266 535.625 253.281C533.36 257.734 531.328 261.953 529.453 266.094L528.516 268.125L526.406 272.813C526.016 273.672 525.703 274.453 525.313 275.312C525 276.094 524.61 276.875 524.297 277.656C519.688 300.547 548.203 333.359 589.531 352.5C590.781 353.125 591.797 354.141 592.266 355.469C592.735 356.797 592.735 358.281 592.11 359.531L574.219 397.891C572.11 402.422 567.5 405.312 562.5 405.312Z" fill="white"/>
<path d="M519.609 155.078C524.375 155.078 529.063 156.016 533.516 158.125C553.516 167.422 560.313 195.156 548.75 220.156L548.438 220.781C548.438 220.781 548.36 220.859 548.36 220.937C546.016 225.781 543.203 230.078 539.922 233.906C534.304 243.648 529.117 253.631 524.375 263.828L523.438 265.859L521.328 270.625C520.547 272.5 519.766 274.219 518.984 276.016C513.359 301.406 542.11 336.406 587.11 357.344L569.297 395.703C568.691 397.014 567.72 398.124 566.502 398.9C565.283 399.675 563.867 400.084 562.422 400.078C561.328 400.078 560.313 399.844 559.219 399.375L445.86 346.797L332.5 294.219C330.695 293.37 329.298 291.845 328.611 289.973C327.923 288.101 328.001 286.033 328.828 284.219L346.641 245.859C368.828 256.172 391.094 261.25 409.844 261.25C429.141 261.25 444.688 255.938 452.656 245.469C453.516 243.75 454.375 241.953 455.313 240.156L457.578 235.469L458.516 233.437C460.625 228.906 462.578 224.531 464.375 220.234C467.11 213.828 469.453 207.734 471.406 202.266C472.266 197.344 473.672 192.344 475.859 187.5V187.344L476.172 186.719C485.391 167.109 502.891 155.078 519.609 155.078ZM519.609 144.453C509.063 144.453 498.438 148.047 488.906 154.844C479.531 161.563 471.875 170.938 466.719 182.031L466.406 182.656C466.25 182.969 466.094 183.281 466.016 183.594C463.817 188.65 462.217 193.947 461.25 199.375C459.453 204.453 457.266 210 454.766 215.938C452.813 220.469 450.938 224.687 449.063 228.75L448.125 230.703L445.938 235.313C445.547 236.172 445.078 236.953 444.688 237.812C444.375 238.359 444.141 238.984 443.828 239.531C437.969 246.484 425.703 250.469 410 250.469C392.11 250.469 371.172 245.391 351.25 236.094C349.844 235.469 348.281 235.078 346.797 235.078C344.782 235.078 342.809 235.651 341.108 236.73C339.406 237.809 338.047 239.35 337.188 241.172L319.375 279.531C315.156 288.594 319.141 299.453 328.203 303.672L441.563 356.25L554.922 408.828C557.344 409.922 559.922 410.547 562.578 410.547C569.609 410.547 576.094 406.406 579.063 400L596.875 361.641C598.047 359.063 598.203 356.172 597.188 353.516C596.25 350.859 594.219 348.75 591.641 347.5C571.406 338.125 553.906 325.313 542.344 311.406C532.5 299.609 527.813 287.891 529.297 279.063C529.531 278.516 529.844 277.891 530.078 277.344C530.469 276.484 530.781 275.625 531.172 274.766L533.281 270.156L534.219 268.203C536.094 264.141 538.125 260 540.313 255.547C543.203 249.844 546.094 244.609 548.75 239.922C552.272 235.693 555.263 231.049 557.656 226.094L558.125 225.156L558.438 224.531C565.078 210.312 566.797 194.688 563.359 180.625C559.688 165.703 550.703 154.297 538.047 148.438C532.266 145.781 526.094 144.453 519.609 144.453Z" fill="#151B28"/>
<path d="M562.5 407.266C560.313 407.266 558.281 406.797 556.25 405.859L329.61 300.625C327.85 299.81 326.268 298.656 324.954 297.229C323.641 295.802 322.621 294.13 321.954 292.309C321.286 290.488 320.984 288.554 321.064 286.616C321.145 284.678 321.606 282.775 322.422 281.016L340.235 242.656C341.017 240.949 342.432 239.612 344.181 238.928C345.929 238.243 347.876 238.263 349.61 238.984C349.688 238.984 349.766 239.062 349.844 239.062C370.235 248.516 391.641 253.75 410 253.75C426.953 253.75 440.235 249.219 446.641 241.328C446.953 240.625 447.344 239.922 447.656 239.297C448.047 238.437 448.516 237.656 448.906 236.797L451.094 232.188L452.031 230.156C453.906 226.016 455.86 221.797 457.813 217.187C460.313 211.172 462.578 205.469 464.453 200.234C465.391 195 466.953 189.766 469.141 184.844C469.219 184.609 469.297 184.297 469.453 184.063L469.766 183.438C479.766 161.797 499.375 147.812 519.61 147.812C525.547 147.812 531.25 149.062 536.563 151.484C548.281 156.953 556.563 167.578 560 181.406C563.281 194.687 561.641 209.531 555.313 223.047L555 223.672C554.922 223.906 554.766 224.141 554.61 224.375C552.188 229.219 549.297 233.75 545.86 237.891C543.125 242.656 540.156 248.047 537.188 253.984C534.922 258.437 532.891 262.578 531.016 266.719L530.078 268.75L527.969 273.437C527.578 274.297 526.25 277.422 525.938 278.125C522.266 297.578 545.078 329.766 590.157 350.625C591.875 351.406 593.281 352.891 593.906 354.687C594.531 356.484 594.453 358.516 593.672 360.234L575.86 398.594C573.516 403.906 568.281 407.266 562.5 407.266Z" fill="white"/>
<path d="M519.609 155.078C524.375 155.078 529.062 156.016 533.516 158.125C553.516 167.422 560.312 195.156 548.75 220.156L548.437 220.781C548.437 220.781 548.359 220.859 548.359 220.937C546.016 225.781 543.203 230.078 539.922 233.906C534.304 243.648 529.117 253.631 524.375 263.828L523.437 265.859L521.328 270.625C520.547 272.5 519.766 274.219 518.984 276.016C513.359 301.406 542.109 336.406 587.109 357.344L569.297 395.703C568.691 397.014 567.72 398.124 566.501 398.9C565.283 399.675 563.867 400.084 562.422 400.078C561.328 400.078 560.312 399.844 559.219 399.375L445.859 346.797L332.5 294.219C330.695 293.37 329.298 291.845 328.61 289.973C327.923 288.101 328.001 286.033 328.828 284.219L346.641 245.859C368.828 256.172 391.094 261.25 409.844 261.25C429.141 261.25 444.688 255.938 452.656 245.469C453.516 243.75 454.375 241.953 455.312 240.156L457.578 235.469L458.516 233.437C460.625 228.906 462.578 224.531 464.375 220.234C467.109 213.828 469.453 207.734 471.406 202.266C472.266 197.344 473.672 192.344 475.859 187.5V187.344L476.172 186.719C485.391 167.109 502.891 155.078 519.609 155.078ZM519.609 140.625C508.281 140.625 496.875 144.453 486.641 151.719C476.719 158.828 468.594 168.75 463.203 180.391L462.891 181.016L462.422 182.187C460.156 187.422 458.516 192.812 457.5 198.359C453.92 208.132 449.932 217.749 445.547 227.187L444.609 229.141L442.422 233.672C442.031 234.531 441.562 235.312 441.172 236.172C440.937 236.562 440.781 237.031 440.547 237.422C435.313 243.203 424.062 246.641 410 246.641C392.656 246.641 372.344 241.641 352.891 232.656C350.937 231.719 348.828 231.328 346.719 231.328C345.078 231.328 343.359 231.641 341.797 232.188C338.203 233.516 335.234 236.172 333.594 239.687L315.781 278.047C310.703 289.062 315.469 302.187 326.484 307.344L439.844 359.922L553.203 412.5C558.511 414.938 564.567 415.181 570.054 413.177C575.541 411.173 580.014 407.083 582.5 401.797L600.312 363.438C601.12 361.711 601.577 359.841 601.656 357.936C601.735 356.032 601.435 354.13 600.774 352.342C600.113 350.555 599.103 348.916 597.803 347.521C596.504 346.127 594.94 345.004 593.203 344.219C553.75 325.859 530.625 296.797 532.969 280.312C533.125 279.844 533.359 279.453 533.516 278.984C533.906 278.125 534.219 277.266 534.609 276.484L536.641 271.953L537.578 270C539.453 265.938 541.406 261.875 543.672 257.5C546.484 251.953 549.219 246.875 551.875 242.344C555.469 237.969 558.516 233.203 561.016 228.125C561.25 227.734 561.406 227.422 561.562 227.031L561.875 226.406C568.828 211.328 570.703 194.844 567.031 180C563.125 164.141 553.125 151.484 539.609 145.234C533.359 142.109 526.641 140.625 519.609 140.625Z" fill="#151B28"/>
<path d="M520.625 327.031C506.172 308.984 499.531 289.609 503.281 272.5L503.594 271.016L506.641 263.906L509.766 256.953C511.953 252.266 514.141 247.812 516.328 243.437C519.688 236.875 522.891 230.937 525.937 225.703L526.641 224.453L527.578 223.359C530 220.547 532.031 217.344 533.672 214.062L534.531 212.266C541.562 196.016 538.047 178.125 526.641 172.812C515.156 167.5 499.219 176.406 491.406 192.344L490.703 193.906C489.141 197.422 488.047 201.016 487.422 204.766L487.187 206.172L486.719 207.5C484.687 213.281 482.187 219.609 479.375 226.406C477.5 230.781 475.469 235.391 473.281 240.078L472.266 242.266L469.922 247.187L466.641 253.906L465.703 255.078C455.078 269.062 435.938 276.484 412.812 277.109L520.625 327.031Z" fill="#FFA500"/>
<path d="M519.062 209.453C516.172 209.453 513.281 208.828 510.625 207.578C500.937 203.047 496.484 191.797 500.859 182.5C503.828 176.016 510.547 171.875 517.891 171.875C520.781 171.875 523.672 172.5 526.328 173.75C531.015 175.937 534.609 179.688 536.406 184.375C538.281 189.141 538.203 194.297 536.094 198.906C534.525 202.081 532.097 204.752 529.087 206.616C526.076 208.48 522.603 209.463 519.062 209.453Z" fill="white"/>
<path d="M517.891 177.109C519.922 177.109 522.109 177.578 524.141 178.516C531.25 181.797 534.453 189.922 531.328 196.563C529.141 201.328 524.297 204.141 519.062 204.141C517.031 204.141 514.844 203.672 512.812 202.734C505.703 199.453 502.5 191.328 505.625 184.687C507.812 179.922 512.656 177.109 517.891 177.109Z" fill="#151B28"/>
<path d="M350.525 293.841L359.077 275.417L562.17 369.689L553.618 388.113L350.525 293.841Z" fill="#2AEFC8"/>
<path d="M359.062 268.047L562.109 362.344L553.516 380.781L350.547 286.484L359.062 268.047ZM359.062 259.453C357.423 259.471 355.821 259.949 354.439 260.833C353.058 261.717 351.953 262.971 351.25 264.453L342.656 282.891C340.625 287.188 342.5 292.344 346.875 294.375L550 388.594C551.024 389.064 552.131 389.327 553.258 389.368C554.384 389.408 555.507 389.225 556.562 388.828C558.672 388.047 560.469 386.406 561.406 384.375L570 365.937C572.031 361.641 570.156 356.484 565.781 354.453L362.734 260.234C361.562 259.688 360.312 259.453 359.062 259.453ZM420 526.172C418.984 526.172 417.969 525.937 416.953 525.469C415.215 524.658 413.87 523.191 413.211 521.39C412.552 519.589 412.633 517.6 413.437 515.859L446.094 445.547C447.812 441.953 452.109 440.312 455.703 442.031C459.297 443.75 460.937 448.047 459.219 451.641L426.562 521.953C425.993 523.215 425.071 524.285 423.906 525.034C422.741 525.783 421.384 526.178 420 526.172ZM350.312 493.828C349.297 493.828 348.281 493.594 347.266 493.125C345.528 492.314 344.182 490.847 343.523 489.046C342.864 487.245 342.946 485.257 343.75 483.516L356.25 456.641C357.969 453.047 362.266 451.406 365.859 453.125C369.453 454.844 371.094 459.141 369.375 462.734L356.875 489.609C356.306 490.872 355.383 491.942 354.218 492.69C353.054 493.439 351.697 493.834 350.312 493.828Z" fill="#151B28"/>
</svg>
