<svg width="800" height="800" viewBox="0 0 800 800" fill="none" xmlns="http://www.w3.org/2000/svg">
<path d="M571.953 311.953C417.656 278.125 544.141 64.1407 332.734 81.8751C121.328 99.6094 -79.1405 586.406 296.172 700.391C671.484 814.375 864.922 376.172 571.953 311.953Z" fill="#FFA500"/>
<path d="M543.36 608.984C538.906 608.984 534.531 608.359 530.156 607.188L216.094 519.375C203.516 515.859 193.125 507.656 186.719 496.328C183.556 490.746 181.533 484.591 180.769 478.22C180.004 471.85 180.513 465.391 182.266 459.219L233.047 277.5C235.968 267.296 242.128 258.318 250.597 251.92C259.066 245.523 269.386 242.052 280 242.031C284.453 242.031 288.828 242.656 293.203 243.828L396.875 272.813C397.11 272.891 397.344 272.891 397.656 272.891C398.594 272.891 399.453 272.422 399.922 271.641L416.563 247.031C422.422 238.359 432.188 233.203 442.656 233.203C445.547 233.203 448.438 233.594 451.25 234.375L542.969 260.078C549.359 261.813 555.034 265.532 559.176 270.698C563.318 275.865 565.713 282.213 566.016 288.828L567.5 318.203C567.578 319.453 568.36 320.469 569.531 320.781L607.188 331.328C619.766 334.844 630.156 343.047 636.563 354.375C639.726 359.957 641.748 366.112 642.513 372.483C643.277 378.853 642.768 385.312 641.016 391.484L590.235 573.203C584.453 594.297 565.156 608.984 543.36 608.984Z" fill="white"/>
<path d="M442.578 239.063C444.922 239.063 447.265 239.375 449.609 240.078L541.406 265.703C546.609 267.136 551.228 270.171 554.608 274.379C557.988 278.586 559.957 283.751 560.234 289.141L561.719 318.594C561.798 320.399 562.445 322.133 563.567 323.55C564.689 324.967 566.229 325.993 567.969 326.484L605.625 337.031C616.606 340.098 625.919 347.402 631.516 357.335C637.113 367.269 638.535 379.018 635.469 390L584.609 571.719C582.077 580.753 576.66 588.712 569.185 594.382C561.71 600.052 552.585 603.122 543.203 603.125C539.375 603.125 535.469 602.578 531.562 601.563L217.5 513.75C206.518 510.683 197.205 503.38 191.608 493.446C186.012 483.513 184.59 471.763 187.656 460.781L238.515 279.063C243.906 260.156 261.094 247.813 279.844 247.813C283.672 247.813 287.578 248.359 291.484 249.375L395.156 278.359C395.937 278.594 396.719 278.672 397.5 278.672C400.312 278.672 403.047 277.266 404.609 274.844L421.25 250.313C426.172 243.125 434.14 239.063 442.578 239.063ZM442.578 227.422C430.156 227.422 418.672 233.516 411.719 243.828L396.328 266.641L294.844 238.281C290 236.953 285.078 236.25 280.078 236.25C268.311 236.283 256.865 240.09 247.422 247.109C237.734 254.297 230.859 264.297 227.5 275.938V276.016L176.64 457.734C168.515 486.719 185.547 516.953 214.531 525.078L528.594 612.891C533.437 614.219 538.359 614.922 543.359 614.922C567.734 614.922 589.375 598.516 595.937 575L646.719 393.281C650.625 379.219 648.906 364.453 641.719 351.797C634.531 339.063 622.89 329.922 608.828 326.016L573.281 316.094L571.875 288.828C571.493 280.992 568.642 273.477 563.731 267.359C558.82 261.241 552.099 256.833 544.531 254.766L452.734 229.063C449.465 227.948 446.032 227.394 442.578 227.422Z" fill="#151B28"/>
<path d="M535.938 285.313C538.203 285.938 539.766 287.891 539.844 290.234L541.328 319.609C541.641 332.266 550.156 343.203 562.344 346.641L600 357.188C605.78 358.806 610.68 362.652 613.625 367.882C616.57 373.112 617.317 379.297 615.703 385.078L564.922 566.797C561.328 578.516 548.984 585.234 537.187 581.875L223.125 494.063C217.345 492.445 212.445 488.598 209.5 483.368C206.555 478.138 205.808 471.953 207.422 466.172L258.281 284.453C259.93 278.721 263.782 273.876 268.994 270.977C274.206 268.078 280.355 267.362 286.094 268.984L389.766 297.969C401.953 301.328 414.922 296.406 421.719 285.781L438.125 261.797C439.375 259.844 441.797 258.984 443.984 259.609L535.938 285.313Z" fill="#2AEFC8"/>
<path d="M466.875 355.078C510.781 367.344 536.406 412.891 524.141 456.797C511.875 500.703 466.328 526.328 422.422 514.063C378.516 501.797 352.891 456.25 365.156 412.344C377.578 368.516 422.969 342.969 466.875 355.078ZM472.344 335.469C417.578 320.156 360.781 352.109 345.547 406.875C330.234 461.641 362.188 518.438 416.953 533.672C471.719 548.984 528.516 517.031 543.75 462.266C558.984 407.578 527.031 350.859 472.344 335.469Z" fill="black"/>
<path d="M453.203 400.937C463.263 403.735 471.799 410.413 476.934 419.505C482.07 428.596 483.383 439.354 480.586 449.414C477.789 459.474 471.11 468.01 462.019 473.145C452.928 478.281 442.169 479.594 432.109 476.797C422.06 474.015 413.523 467.363 408.369 458.299C403.214 449.234 401.862 438.497 404.61 428.437C405.991 423.439 408.345 418.762 411.536 414.674C414.726 410.586 418.692 407.167 423.205 404.613C427.718 402.059 432.691 400.42 437.838 399.789C442.986 399.158 448.207 399.549 453.203 400.937Z" fill="#FFA500"/>
<path d="M443.828 496.797C421.25 496.797 400.312 484.609 389.141 464.453C383.105 453.614 380.446 441.219 381.504 428.858C382.562 416.497 387.289 404.734 395.078 395.078C411.016 375.234 437.109 366.953 461.484 374.141C494.297 383.75 513.437 418.359 504.141 451.25C497.187 475.781 476.406 493.437 451.094 496.406C448.672 496.641 446.25 496.797 443.828 496.797ZM443.828 390.547C430.781 390.547 418.281 396.406 409.844 406.953C404.419 413.686 401.127 421.885 400.389 430.501C399.651 439.116 401.502 447.755 405.703 455.312C414.297 470.859 431.25 479.609 448.906 477.578C457.506 476.621 465.621 473.11 472.207 467.499C478.794 461.887 483.548 454.432 485.859 446.094C492.344 423.125 478.984 399.062 456.172 392.344C452.109 391.094 447.969 390.547 443.828 390.547ZM344.687 242.656L305.469 231.641C300.078 230.156 296.875 224.531 298.437 219.062C299.922 213.672 305.547 210.469 311.016 212.031L350.234 223.047C355.625 224.531 358.828 230.156 357.266 235.625C355.781 241.016 350.156 244.141 344.687 242.656ZM323.047 320.156L283.828 309.141C278.437 307.656 275.234 302.031 276.797 296.562C278.281 291.172 283.906 287.969 289.375 289.453L328.594 300.469C333.984 301.953 337.187 307.578 335.625 313.047C334.062 318.516 328.437 321.719 323.047 320.156Z" fill="black"/>
</svg>
