<svg width="800" height="800" viewBox="0 0 800 800" fill="none" xmlns="http://www.w3.org/2000/svg">
<path d="M570.235 309.844C415.625 277.813 539.531 62.5 328.516 82.7344C117.5 102.969 -77.1874 591.719 299.141 701.172C675.469 810.625 863.672 370.625 570.235 309.844Z" fill="#FFA500"/>
<path d="M522.734 609.219C520.547 609.219 518.359 608.906 516.25 608.359L268.516 539.453C255.703 535.859 248.203 522.578 251.797 509.844L274.766 427.266C275.184 425.799 276.064 424.506 277.273 423.578C278.483 422.649 279.96 422.135 281.484 422.109C282.109 422.109 282.734 422.187 283.359 422.344C283.984 422.5 284.688 422.656 285.313 422.656C288.594 422.656 291.484 420.469 292.344 417.266C292.606 416.337 292.682 415.366 292.568 414.408C292.455 413.45 292.154 412.524 291.682 411.682C291.211 410.841 290.578 410.1 289.82 409.503C289.062 408.906 288.194 408.465 287.266 408.203C286.383 407.958 285.557 407.541 284.836 406.976C284.114 406.411 283.511 405.709 283.061 404.911C282.612 404.113 282.324 403.233 282.214 402.324C282.104 401.414 282.175 400.492 282.422 399.609L306.328 314.063C308.281 306.953 312.578 300.547 318.437 296.094L378.516 237.969C382.991 233.613 388.989 231.174 395.234 231.172C397.422 231.172 399.609 231.484 401.719 232.031L605.234 288.672C618.047 292.188 625.547 305.547 621.953 318.281L576.562 481.406C576.144 482.873 575.265 484.166 574.055 485.094C572.845 486.022 571.369 486.537 569.844 486.562C569.219 486.562 568.594 486.484 567.969 486.328C567.344 486.172 566.641 486.016 566.016 486.016C564.413 486.013 562.855 486.54 561.583 487.515C560.312 488.49 559.398 489.858 558.984 491.406C558.437 493.281 558.672 495.312 559.688 496.953C560.703 498.594 562.187 499.922 564.141 500.391C567.891 501.406 570 505.313 568.984 508.984L546.016 591.563C543.047 601.953 533.516 609.219 522.734 609.219Z" fill="#FFA500"/>
<path d="M395.235 238.125C396.797 238.125 398.281 238.359 399.844 238.75L603.36 295.391C607.716 296.61 611.412 299.507 613.638 303.446C615.863 307.385 616.438 312.045 615.235 316.406L569.844 479.531C568.594 479.141 567.266 478.984 566.016 478.984C559.766 478.984 553.985 483.125 552.188 489.453C550.078 497.109 554.531 505 562.188 507.109L539.219 589.687C537.11 597.266 530.235 602.187 522.813 602.187C521.328 602.187 519.766 601.953 518.203 601.563L270.469 532.656C266.112 531.436 262.417 528.54 260.191 524.601C257.965 520.662 257.391 516.002 258.594 511.641L281.563 429.063C282.813 429.453 284.141 429.609 285.391 429.609C291.641 429.609 297.422 425.469 299.219 419.141C301.328 411.484 296.875 403.594 289.219 401.484L313.047 315.938C314.688 310.156 318.125 305 322.969 301.406L383.36 242.969C386.641 239.844 390.86 238.125 395.235 238.125ZM395.235 224.141C387.11 224.141 379.453 227.266 373.672 232.891L313.906 290.781C307.016 296.195 302.035 303.667 299.688 312.109L275.781 397.734C274.766 401.328 275.235 405.156 277.11 408.359C278.906 411.563 281.953 413.984 285.547 414.922C285.781 415 285.86 415.156 285.781 415.391C285.703 415.625 285.469 415.625 285.469 415.625H285.391C284.141 415.313 282.891 415.078 281.641 415.078C275.547 415.078 269.922 419.141 268.203 425.313L245.235 507.891C240.625 524.375 250.313 541.484 266.797 546.094L514.531 615C517.266 615.781 520.078 616.172 522.891 616.172C536.797 616.172 549.063 606.797 552.813 593.437L575.625 510.938C576.641 507.344 576.172 503.516 574.297 500.313C572.5 497.109 569.453 494.688 565.86 493.75C565.625 493.672 565.547 493.516 565.625 493.281C565.703 493.047 565.938 493.047 565.938 493.047H566.016C567.266 493.359 568.516 493.594 569.766 493.594C572.188 493.594 574.531 492.969 576.641 491.797C579.844 490 582.266 486.953 583.203 483.359L628.594 320.234C633.203 303.75 623.516 286.641 607.031 282.031L403.516 225.391C400.86 224.531 398.047 224.141 395.235 224.141Z" fill="#151B28"/>
<path d="M518.828 608.672C517.5 608.672 516.094 608.594 514.765 608.359L221.328 563.594C214.272 562.496 207.938 558.651 203.708 552.898C199.477 547.146 197.695 539.953 198.75 532.891L213.672 435.078C213.808 434.139 214.129 433.235 214.616 432.42C215.102 431.605 215.745 430.894 216.508 430.327C217.27 429.761 218.136 429.351 219.057 429.121C219.978 428.89 220.936 428.844 221.875 428.984C222.344 429.063 222.812 429.063 223.281 429.063C227.89 429.063 231.797 425.703 232.422 421.172C232.812 418.672 232.187 416.25 230.703 414.219C229.219 412.188 227.031 410.938 224.609 410.547C220.625 409.922 217.969 406.25 218.515 402.266L233.984 300.938C235.234 292.656 239.219 284.922 245.156 279.141L306.015 204.141C308.97 200.479 312.834 197.657 317.221 195.957C321.608 194.257 326.365 193.738 331.015 194.453L572.109 231.25C579.165 232.348 585.499 236.193 589.73 241.946C593.96 247.698 595.742 254.891 594.687 261.953L565.156 455.156C564.841 457.057 563.805 458.764 562.265 459.922C561.025 460.848 559.516 461.342 557.969 461.328C557.578 461.328 557.265 461.328 556.875 461.25C556.406 461.172 555.937 461.172 555.469 461.172C550.859 461.172 546.953 464.531 546.328 469.063C545.937 471.563 546.562 473.984 548.047 476.016C549.531 478.047 551.719 479.297 554.14 479.688C556.015 480 557.734 481.016 558.906 482.578C560.078 484.141 560.547 486.094 560.234 487.969L545.312 585.781C543.437 598.906 532.031 608.672 518.828 608.672Z" fill="white"/>
<path d="M327.109 201.484C328.125 201.484 329.062 201.563 330.078 201.719L571.172 238.516C581.953 240.156 589.297 250.234 587.656 260.938L558.125 454.141C557.266 453.984 556.406 453.984 555.625 453.984C547.578 453.984 540.547 459.844 539.297 468.047C538.962 470.192 539.054 472.382 539.569 474.491C540.083 476.601 541.01 478.587 542.295 480.337C543.58 482.087 545.198 483.565 547.057 484.687C548.916 485.809 550.978 486.553 553.125 486.875L538.281 584.766C537.895 587.322 537.008 589.777 535.672 591.99C534.335 594.203 532.575 596.13 530.492 597.662C528.409 599.193 526.044 600.298 523.533 600.914C521.022 601.53 518.414 601.644 515.859 601.25L222.422 556.484C211.641 554.844 204.297 544.766 205.937 534.062L220.859 436.25C221.719 436.406 222.578 436.406 223.359 436.406C231.406 436.406 238.437 430.547 239.687 422.344C241.094 413.281 234.844 404.844 225.859 403.516L241.328 302.187C242.344 295.312 245.625 288.984 250.703 284.219L311.875 208.906C315.625 204.141 321.25 201.484 327.109 201.484ZM327.109 187.031C316.797 187.031 307.109 191.641 300.547 199.688L239.922 274.375C232.995 281.329 228.455 290.301 226.953 300L211.484 401.328C210.908 405.119 211.859 408.984 214.129 412.075C216.4 415.166 219.804 417.229 223.594 417.812C224.297 417.891 224.766 418.281 224.922 418.594C225.156 418.906 225.391 419.453 225.312 420.156C225.156 421.328 224.141 421.953 223.281 421.953H222.969C222.266 421.875 221.484 421.797 220.781 421.797C217.734 421.797 214.687 422.734 212.187 424.609C209.062 426.875 207.031 430.312 206.484 434.062L191.562 531.875C188.75 550.469 201.562 567.969 220.156 570.781L513.594 615.547C522.545 616.913 531.671 614.667 538.967 609.305C546.263 603.943 551.131 595.903 552.5 586.953L567.422 489.141C568.594 481.25 563.203 473.828 555.312 472.656C554.141 472.5 553.359 471.406 553.594 470.313C553.75 469.141 554.766 468.516 555.625 468.516H555.937C556.641 468.594 557.422 468.672 558.125 468.672C561.172 468.672 564.219 467.734 566.719 465.859C569.844 463.594 571.875 460.156 572.422 456.406L601.953 263.203C604.766 244.609 591.953 227.109 573.359 224.297L332.266 187.5C330.547 187.188 328.828 187.031 327.109 187.031Z" fill="#151B28"/>
<path d="M366.406 242.656C359.531 241.563 352.578 244.297 348.125 249.688L286.953 325C281.918 329.781 278.619 336.104 277.578 342.969L262.109 444.297C264.255 444.623 266.315 445.369 268.171 446.492C270.028 447.615 271.645 449.094 272.929 450.843C274.213 452.592 275.14 454.577 275.657 456.684C276.173 458.792 276.268 460.981 275.938 463.125C275.611 465.27 274.866 467.33 273.742 469.187C272.619 471.043 271.141 472.66 269.392 473.945C267.643 475.229 265.658 476.156 263.55 476.672C261.443 477.189 259.254 477.284 257.109 476.953L244.531 559.844L515.859 601.25C521.018 602.035 526.278 600.74 530.482 597.649C534.686 594.558 537.492 589.924 538.281 584.766L553.203 486.953C551.058 486.627 548.998 485.881 547.141 484.758C545.285 483.635 543.668 482.156 542.383 480.408C541.099 478.659 540.172 476.674 539.656 474.566C539.14 472.458 539.044 470.27 539.375 468.125C539.701 465.98 540.447 463.92 541.57 462.063C542.693 460.207 544.172 458.59 545.921 457.305C547.67 456.021 549.655 455.094 551.762 454.578C553.87 454.062 556.059 453.966 558.203 454.297L585.391 276.172L366.406 242.656Z" fill="#2AEFC8"/>
<path d="M488.047 557.188C486.953 557.188 485.938 557.109 484.844 556.953L266.719 523.672C261.172 522.813 256.25 519.844 252.891 515.313C249.531 510.781 248.203 505.234 249.063 499.609L255.859 455.313C256.737 449.794 259.757 444.845 264.262 441.539C268.767 438.233 274.394 436.838 279.922 437.656L498.047 470.938C509.531 472.656 517.5 483.438 515.703 495L508.906 539.297C507.344 549.453 498.359 557.188 488.047 557.188Z" fill="white"/>
<path d="M276.641 443.984C277.344 443.984 278.125 444.062 278.828 444.141L496.953 477.422C504.844 478.594 510.312 486.016 509.062 493.906L502.344 538.281C502.06 540.16 501.408 541.965 500.425 543.591C499.442 545.217 498.147 546.634 496.616 547.759C495.084 548.884 493.346 549.695 491.5 550.147C489.654 550.599 487.737 550.681 485.859 550.391L267.734 517.109C259.844 515.938 254.375 508.516 255.625 500.625L262.422 456.328C262.911 452.904 264.617 449.771 267.229 447.504C269.841 445.237 273.182 443.987 276.641 443.984ZM276.641 430.781C270.078 430.781 263.672 433.125 258.672 437.422C253.594 441.727 250.238 447.718 249.219 454.297L242.422 498.594C240.078 513.672 250.547 527.891 265.625 530.156L483.75 563.437C487.686 564.045 491.707 563.794 495.536 562.702C499.366 561.61 502.914 559.702 505.937 557.109C511.016 552.812 514.375 546.797 515.391 540.234L522.188 495.937C524.531 480.859 514.063 466.641 498.984 464.375L280.859 431.094C279.453 430.859 278.047 430.781 276.641 430.781ZM305.078 371.562L296.25 370.234C295.197 370.061 294.254 369.481 293.625 368.618C292.997 367.756 292.733 366.681 292.891 365.625L304.844 287.266C305.017 286.212 305.597 285.27 306.46 284.641C307.322 284.012 308.398 283.748 309.453 283.906L318.281 285.234C320.469 285.547 321.953 287.656 321.641 289.844L309.687 368.203C309.297 370.391 307.266 371.875 305.078 371.562ZM354.063 379.062L345.234 377.734C344.181 377.561 343.238 376.981 342.61 376.118C341.981 375.256 341.717 374.181 341.875 373.125L353.906 294.766C354.079 293.712 354.66 292.77 355.522 292.141C356.385 291.512 357.46 291.248 358.516 291.406L367.344 292.734C369.531 293.047 371.016 295.156 370.703 297.344L358.75 375.703C358.359 377.891 356.25 379.375 354.063 379.062ZM403.125 386.562L394.297 385.234C393.244 385.061 392.301 384.481 391.672 383.618C391.044 382.756 390.78 381.681 390.938 380.625L402.891 302.266C403.064 301.212 403.644 300.27 404.507 299.641C405.369 299.012 406.444 298.748 407.5 298.906L416.328 300.234C418.516 300.547 420 302.656 419.688 304.844L407.734 383.203C407.344 385.391 405.313 386.875 403.125 386.562ZM452.109 394.062L443.281 392.734C442.228 392.561 441.285 391.981 440.657 391.118C440.028 390.256 439.764 389.181 439.922 388.125L451.875 309.766C452.048 308.712 452.628 307.77 453.491 307.141C454.354 306.512 455.429 306.248 456.484 306.406L465.312 307.734C467.5 308.047 468.984 310.156 468.672 312.344L456.719 390.703C456.406 392.812 454.297 394.375 452.109 394.062ZM501.172 401.484L492.344 400.156C491.291 399.983 490.348 399.403 489.719 398.54C489.091 397.678 488.827 396.602 488.984 395.547L500.938 317.187C501.111 316.134 501.691 315.191 502.554 314.563C503.416 313.934 504.491 313.67 505.547 313.828L514.375 315.156C516.563 315.469 518.047 317.578 517.734 319.766L505.781 398.125C505.391 400.312 503.359 401.875 501.172 401.484Z" fill="#151B28"/>
<path d="M295.415 475.604L471.886 502.545L469.375 518.995L292.904 492.054L295.415 475.604Z" fill="#2AEFC8"/>
</svg>
