<svg width="800" height="800" viewBox="0 0 800 800" fill="none" xmlns="http://www.w3.org/2000/svg">
<path d="M571.986 312.12C417.69 278.292 544.174 64.3079 332.768 82.0423C121.361 99.7767 -79.1073 586.573 296.205 700.558C671.518 814.542 864.955 376.339 571.986 312.12Z" fill="#FFA500"/>
<path d="M282.924 578.917C281.518 578.917 280.111 578.527 278.861 577.589L266.674 568.917C263.705 566.808 262.846 562.667 264.799 559.542L305.424 493.839C306.439 492.198 308.08 491.027 309.955 490.636C310.424 490.558 310.893 490.48 311.361 490.48C312.768 490.48 314.252 490.948 315.424 491.808L335.971 506.417C337.533 507.511 338.549 509.23 338.861 511.183C339.096 513.136 338.549 515.011 337.377 516.573L288.393 576.339C287.725 577.142 286.889 577.789 285.944 578.235C284.999 578.68 283.968 578.913 282.924 578.917Z" fill="#FFA500"/>
<path d="M311.361 497.511L331.908 512.12L282.924 571.886L270.736 563.214L311.361 497.511ZM311.361 483.527C310.424 483.527 309.486 483.605 308.627 483.839C304.799 484.62 301.518 486.886 299.486 490.167L258.861 555.87C254.955 562.12 256.674 570.323 262.611 574.62L274.799 583.292C277.221 585.011 280.111 585.87 282.924 585.87C286.986 585.87 290.971 584.074 293.783 580.714L342.767 520.949C345.189 517.98 346.283 514.073 345.814 510.245C345.267 506.417 343.236 502.98 340.111 500.714L319.564 486.105C317.064 484.464 314.252 483.527 311.361 483.527Z" fill="#151B28"/>
<path d="M525.424 578.917C523.393 578.917 521.361 578.058 520.033 576.339L471.049 516.573C470.428 515.835 469.973 514.971 469.717 514.04C469.461 513.11 469.409 512.135 469.565 511.183C469.799 509.23 470.893 507.511 472.455 506.417L493.002 491.808C494.174 490.948 495.58 490.48 497.065 490.48C497.533 490.48 498.002 490.558 498.471 490.636C500.346 491.027 501.986 492.198 503.002 493.839L543.627 559.542C545.58 562.667 544.721 566.808 541.752 568.917L529.486 577.667C528.302 578.509 526.877 578.948 525.424 578.917Z" fill="#FFA500"/>
<path d="M497.064 497.511L537.689 563.214L525.502 571.886L476.517 512.12L497.064 497.511ZM497.064 483.527C494.174 483.527 491.361 484.386 488.939 486.105L468.392 500.714C465.267 502.98 463.158 506.417 462.689 510.245C462.142 514.073 463.314 517.98 465.736 520.949L514.721 580.714C516.97 583.468 520.181 585.266 523.705 585.745C527.228 586.223 530.802 585.347 533.705 583.292L545.892 574.62C551.908 570.323 553.549 562.12 549.642 555.87L509.017 490.167C506.986 486.886 503.705 484.542 499.877 483.839C498.861 483.683 497.924 483.527 497.064 483.527Z" fill="#151B28"/>
<path d="M297.97 517.761C311.913 531.705 328.466 542.765 346.684 550.311C364.902 557.857 384.427 561.741 404.146 561.741C423.865 561.741 443.391 557.857 461.609 550.311C479.826 542.765 496.379 531.705 510.323 517.761C524.266 503.818 535.326 487.265 542.873 469.047C550.419 450.83 554.302 431.304 554.302 411.585C554.302 391.866 550.419 372.34 542.873 354.123C535.326 335.905 524.266 319.352 510.323 305.408C482.163 277.249 443.97 261.429 404.146 261.429C364.322 261.429 326.129 277.249 297.97 305.408C269.81 333.568 253.99 371.761 253.99 411.585C253.99 451.409 269.81 489.602 297.97 517.761Z" fill="white"/>
<path d="M404.174 268.683C483.08 268.683 547.064 332.667 547.064 411.573C547.064 490.48 483.08 554.464 404.174 554.464C325.268 554.464 261.283 490.558 261.283 411.573C261.283 332.589 325.268 268.683 404.174 268.683ZM404.174 254.23C382.924 254.23 362.299 258.37 342.924 266.573C324.174 274.464 307.377 285.87 292.924 300.323C278.471 314.777 267.143 331.573 259.174 350.323C250.971 369.698 246.83 390.323 246.83 411.573C246.83 432.823 250.971 453.448 259.174 472.823C267.064 491.573 278.471 508.37 292.924 522.823C307.377 537.277 324.174 548.605 342.924 556.573C362.299 564.777 382.924 568.917 404.174 568.917C425.424 568.917 446.049 564.777 465.424 556.573C484.174 548.683 500.971 537.277 515.424 522.823C529.877 508.37 541.205 491.573 549.174 472.823C557.377 453.448 561.518 432.823 561.518 411.573C561.518 390.323 557.377 369.698 549.174 350.323C541.283 331.573 529.877 314.777 515.424 300.323C500.971 285.87 484.174 274.542 465.424 266.573C446.046 258.378 425.213 254.179 404.174 254.23Z" fill="#151B28"/>
<path d="M302.846 421.417C302.846 450.736 314.493 478.854 335.224 499.586C355.956 520.317 384.074 531.964 413.393 531.964C442.711 531.964 470.829 520.317 491.561 499.586C512.293 478.854 523.939 450.736 523.939 421.417C523.939 392.098 512.293 363.98 491.561 343.249C470.829 322.517 442.711 310.87 413.393 310.87C384.074 310.87 355.956 322.517 335.224 343.249C314.493 363.98 302.846 392.098 302.846 421.417Z" fill="#2AEFC8"/>
<path d="M404.174 299.62C466.049 299.62 516.127 349.777 516.127 411.573C516.127 473.37 465.971 523.527 404.174 523.527C342.377 523.527 292.221 473.37 292.221 411.573C292.221 349.777 342.299 299.62 404.174 299.62ZM404.174 292.277C372.299 292.277 342.299 304.698 319.799 327.198C297.221 349.777 284.877 379.698 284.877 411.573C284.877 443.448 297.299 473.448 319.799 495.948C342.377 518.527 372.299 530.87 404.174 530.87C436.049 530.87 466.049 518.448 488.549 495.948C511.127 473.37 523.471 443.448 523.471 411.573C523.471 379.698 511.049 349.698 488.549 327.198C477.49 316.091 464.339 307.286 449.857 301.292C435.375 295.297 419.848 292.233 404.174 292.277Z" fill="#151B28"/>
<path d="M259.721 315.089C257.221 315.089 254.955 313.839 253.627 311.73C246.809 301.012 243.378 288.488 243.783 275.792C244.252 258.917 251.127 243.136 263.314 231.339C275.288 219.603 291.392 213.039 308.158 213.058H309.877C328.002 213.527 345.033 221.652 356.674 235.245C358.314 237.12 358.783 239.699 358.08 242.12C357.377 244.542 355.424 246.339 353.002 246.964C316.752 256.652 285.814 279.542 265.971 311.652C265.303 312.705 264.38 313.572 263.287 314.173C262.194 314.774 260.968 315.089 259.721 315.089Z" fill="white"/>
<path d="M308.08 220.323H309.565C326.205 220.792 341.049 228.292 351.049 240.011C312.768 250.167 280.19 274.855 259.721 307.823C253.705 298.302 250.659 287.206 250.971 275.948C251.752 245.011 277.221 220.323 308.08 220.323ZM308.08 205.87C289.33 205.87 271.596 213.058 258.158 226.183C244.727 239.19 236.929 256.945 236.44 275.636C236.049 289.855 239.877 303.683 247.455 315.636C250.111 319.855 254.721 322.355 259.643 322.355H259.721C264.721 322.355 269.33 319.698 271.908 315.48C290.815 285.011 320.19 263.214 354.643 253.995C357.004 253.367 359.167 252.149 360.93 250.458C362.693 248.766 363.999 246.655 364.724 244.322C365.45 241.988 365.573 239.509 365.08 237.116C364.588 234.723 363.496 232.493 361.908 230.636C355.442 223.087 347.462 216.982 338.485 212.716C329.508 208.449 319.735 206.117 309.799 205.87H308.08Z" fill="#151B28"/>
<path d="M548.627 315.089C546.127 315.089 543.861 313.761 542.533 311.652C522.689 279.62 491.752 256.652 455.502 246.964C453.08 246.339 451.205 244.464 450.424 242.12C449.721 239.777 450.189 237.199 451.83 235.245C457.635 228.469 464.803 222.991 472.866 219.168C480.929 215.345 489.706 213.263 498.627 213.058H500.346C517.143 213.058 533.08 219.542 545.189 231.339C557.263 243.032 564.275 258.99 564.721 275.792C565.033 288.605 561.674 301.027 554.877 311.73C554.193 312.762 553.264 313.608 552.174 314.194C551.083 314.78 549.865 315.088 548.627 315.089Z" fill="white"/>
<path d="M500.268 220.323C531.127 220.323 556.596 245.011 557.377 276.027C557.689 287.745 554.408 298.761 548.627 307.902C527.94 274.483 495.272 250.226 457.299 240.089C467.221 228.37 482.143 220.87 498.783 220.402C499.33 220.402 499.799 220.323 500.268 220.323ZM500.268 205.87H498.393C478.236 206.417 459.252 215.402 446.283 230.636C443.08 234.386 441.986 239.62 443.471 244.308C444.955 249.073 448.783 252.667 453.549 253.995C488.002 263.136 517.455 285.011 536.283 315.48C538.939 319.698 543.549 322.277 548.471 322.355H548.549C553.471 322.355 558.08 319.855 560.736 315.636C568.314 303.683 572.143 289.855 571.752 275.636C571.283 256.886 563.549 239.308 550.033 226.183C536.752 213.058 519.018 205.87 500.268 205.87Z" fill="#151B28"/>
<path d="M404.174 418.839C400.189 418.839 396.908 415.636 396.908 411.574V341.417C396.908 337.433 400.111 334.152 404.174 334.152C408.236 334.152 411.439 337.355 411.439 341.417V411.574C411.439 415.636 408.158 418.839 404.174 418.839Z" fill="#151B28"/>
<path d="M435.658 437.277C434.408 437.277 433.158 436.964 431.986 436.261L400.502 417.823C398.848 416.846 397.648 415.254 397.165 413.395C396.682 411.535 396.954 409.56 397.924 407.902C398.901 406.247 400.493 405.047 402.353 404.564C404.212 404.081 406.187 404.354 407.846 405.323L439.33 423.761C440.984 424.738 442.184 426.33 442.667 428.19C443.15 430.049 442.878 432.024 441.908 433.683C441.281 434.785 440.371 435.699 439.273 436.331C438.174 436.963 436.926 437.289 435.658 437.277Z" fill="#151B28"/>
</svg>
