<svg width="800" height="800" viewBox="0 0 800 800" fill="none" xmlns="http://www.w3.org/2000/svg">
<path d="M609.141 293.125C454.844 259.297 581.328 45.3906 369.922 63.1249C158.516 80.8593 -41.953 567.656 333.359 681.641C708.672 795.625 902.109 357.422 609.141 293.125Z" fill="#FFA500"/>
<path d="M537.266 278.594C537.266 286.177 540.278 293.45 545.641 298.813C551.003 304.175 558.276 307.188 565.859 307.188C573.443 307.188 580.716 304.175 586.078 298.813C591.441 293.45 594.453 286.177 594.453 278.594C594.453 271.01 591.441 263.737 586.078 258.375C580.716 253.013 573.443 250 565.859 250C558.276 250 551.003 253.013 545.641 258.375C540.278 263.737 537.266 271.01 537.266 278.594Z" fill="#FFA500"/>
<path d="M565.859 257.031C571.578 257.031 577.063 259.303 581.106 263.347C585.15 267.391 587.422 272.875 587.422 278.594C587.422 284.312 585.15 289.797 581.106 293.841C577.063 297.884 571.578 300.156 565.859 300.156C560.141 300.156 554.656 297.884 550.612 293.841C546.569 289.797 544.297 284.312 544.297 278.594C544.297 272.875 546.569 267.391 550.612 263.347C554.656 259.303 560.141 257.031 565.859 257.031ZM565.859 243.047C546.25 243.047 530.312 258.984 530.312 278.594C530.312 298.203 546.25 314.141 565.859 314.141C585.469 314.141 601.406 298.203 601.406 278.594C601.406 258.984 585.469 243.047 565.859 243.047Z" fill="#151B28"/>
<path d="M308.828 371.406C307.5 371.406 306.172 370.859 305.156 369.922L301.562 366.328C301.08 365.854 300.697 365.289 300.436 364.665C300.174 364.041 300.039 363.372 300.039 362.695C300.039 362.019 300.174 361.349 300.436 360.726C300.697 360.102 301.08 359.537 301.562 359.063L466.016 194.609C466.953 193.672 468.281 193.125 469.688 193.125C471.016 193.125 472.344 193.672 473.359 194.609L476.953 198.203C478.984 200.234 478.984 203.438 476.953 205.469L312.5 369.922C311.512 370.869 310.197 371.401 308.828 371.406Z" fill="white"/>
<path d="M469.688 198.203L473.281 201.797L308.828 366.25L305.234 362.656L469.688 198.203ZM469.688 187.969C467.031 187.969 464.453 188.984 462.422 191.016L297.969 355.391C297.006 356.34 296.241 357.471 295.718 358.718C295.195 359.966 294.925 361.304 294.922 362.656C294.922 365.391 296.016 367.969 297.969 369.922L301.562 373.516C302.51 374.481 303.641 375.248 304.888 375.772C306.136 376.296 307.475 376.565 308.828 376.565C310.181 376.565 311.52 376.296 312.768 375.772C314.015 375.248 315.146 374.481 316.094 373.516L480.547 209.062C482.5 207.109 483.594 204.531 483.594 201.797C483.594 199.062 482.5 196.484 480.547 194.531L476.953 190.937C475 188.984 472.344 187.969 469.688 187.969Z" fill="#151B28"/>
<path d="M469.063 539.141C467.734 539.141 466.406 538.672 465.391 537.656L300.937 373.203C300.455 372.729 300.072 372.164 299.811 371.54C299.549 370.916 299.414 370.247 299.414 369.57C299.414 368.894 299.549 368.224 299.811 367.601C300.072 366.977 300.455 366.412 300.937 365.937L305.859 361.016C306.875 360 308.203 359.531 309.531 359.531C310.859 359.531 312.187 360 313.203 361.016L477.656 525.469C479.688 527.5 479.688 530.703 477.656 532.734L472.734 537.656C471.719 538.594 470.391 539.141 469.063 539.141Z" fill="white"/>
<path d="M309.531 364.609L473.984 529.063L469.063 533.984L304.609 369.531L309.531 364.609ZM309.531 354.297C306.875 354.297 304.297 355.312 302.266 357.344L297.344 362.266C295.391 364.219 294.297 366.797 294.297 369.531C294.297 372.266 295.391 374.844 297.344 376.797L461.797 541.25C463.75 543.203 466.328 544.297 469.063 544.297C471.797 544.297 474.375 543.203 476.328 541.25L481.25 536.328C485.234 532.344 485.234 525.781 481.25 521.797L316.797 357.344C314.766 355.312 312.109 354.297 309.531 354.297Z" fill="#151B28"/>
<path d="M467.422 228.125C465.703 228.125 464.063 227.5 462.734 226.172C456.172 219.609 452.578 210.938 452.578 201.719C452.578 192.5 456.172 183.828 462.734 177.266C469.297 170.703 477.969 167.109 487.187 167.109C496.406 167.109 505.078 170.703 511.641 177.266C512.261 177.878 512.754 178.608 513.089 179.413C513.424 180.218 513.596 181.081 513.594 181.953C513.594 183.672 512.891 185.391 511.641 186.641L472.109 226.172C471.504 226.801 470.775 227.299 469.969 227.635C469.162 227.971 468.295 228.138 467.422 228.125Z" fill="#2AEFC8"/>
<path d="M487.187 173.828C494.375 173.828 501.484 176.562 506.953 182.031L467.422 221.562C456.484 210.625 456.484 192.969 467.422 182.031C472.891 176.562 480.078 173.828 487.187 173.828ZM487.187 160.547C476.172 160.547 465.859 164.844 458.047 172.578C454.22 176.405 451.184 180.948 449.113 185.948C447.042 190.948 445.976 196.307 445.976 201.719C445.976 207.131 447.042 212.49 449.113 217.489C451.184 222.489 454.22 227.033 458.047 230.859C460.547 233.359 463.906 234.766 467.422 234.766C470.937 234.766 474.297 233.359 476.797 230.859L516.328 191.328C521.484 186.172 521.484 177.734 516.328 172.578C512.504 168.75 507.961 165.716 502.96 163.651C497.959 161.586 492.598 160.531 487.187 160.547Z" fill="#151B28"/>
<path d="M311.875 382.188C302.188 382.188 294.297 374.297 294.297 364.609C294.297 354.922 302.188 347.031 311.875 347.031C321.562 347.031 329.453 354.922 329.453 364.609C329.453 374.297 321.562 382.188 311.875 382.188Z" fill="#2AEFC8"/>
<path d="M311.875 353.672C317.891 353.672 322.812 358.594 322.812 364.609C322.812 370.625 317.891 375.547 311.875 375.547C305.859 375.547 300.938 370.625 300.938 364.609C300.859 358.594 305.781 353.672 311.875 353.672ZM311.875 340.391C298.516 340.391 287.656 351.25 287.656 364.609C287.656 377.969 298.516 388.828 311.875 388.828C325.234 388.828 336.094 377.969 336.094 364.609C336.016 351.25 325.156 340.391 311.875 340.391Z" fill="#151B28"/>
<path d="M518.75 532.578C518.268 532.578 517.79 532.483 517.345 532.299C516.899 532.114 516.495 531.844 516.154 531.503C515.813 531.162 515.542 530.757 515.358 530.311C515.173 529.866 515.078 529.388 515.078 528.906V511.172C515.078 509.141 516.719 507.5 518.75 507.5H536.484C538.516 507.5 540.156 509.141 540.156 511.172V528.906C540.156 530.938 538.516 532.578 536.484 532.578H518.75Z" fill="#2AEFC8"/>
<path d="M536.484 511.172V528.906H518.75V511.172H536.484ZM536.484 503.828H518.75C514.688 503.828 511.406 507.109 511.406 511.172V528.906C511.406 532.969 514.688 536.25 518.75 536.25H536.484C540.547 536.25 543.828 532.969 543.828 528.906V511.172C543.828 507.109 540.547 503.828 536.484 503.828Z" fill="#151B28"/>
<path d="M336.25 567.5C332.266 567.5 328.984 564.297 328.984 560.234C328.984 542.656 343.281 528.359 360.859 528.359H580C597.578 528.359 611.875 542.656 611.875 560.234C611.875 564.219 608.672 567.5 604.609 567.5H336.25Z" fill="white"/>
<path d="M580.078 535.547C583.32 535.547 586.53 536.185 589.526 537.426C592.521 538.667 595.242 540.485 597.535 542.778C599.827 545.07 601.646 547.792 602.886 550.787C604.127 553.782 604.766 556.992 604.766 560.234H336.25C336.25 553.687 338.851 547.407 343.481 542.778C348.111 538.148 354.39 535.547 360.938 535.547H580.078ZM580.078 521.094H360.938C339.375 521.094 321.797 538.672 321.797 560.234C321.797 568.203 328.281 574.687 336.25 574.687H604.688C612.656 574.687 619.141 568.203 619.141 560.234C619.219 538.672 601.641 521.094 580.078 521.094Z" fill="#151B28"/>
<path d="M604.688 560.234H362.812C362.812 551.406 369.922 544.297 378.75 544.297H588.75C597.578 544.297 604.688 551.406 604.688 560.234Z" fill="#FFA500"/>
<path d="M494.062 339.141C492.109 339.141 490.312 338.359 488.906 337.031C479.994 328.166 472.927 317.622 468.113 306.01C463.299 294.397 460.834 281.946 460.859 269.375C460.859 243.828 470.781 219.766 488.906 201.719C497.772 192.807 508.315 185.739 519.928 180.925C531.54 176.111 543.992 173.646 556.562 173.672C582.109 173.672 606.172 183.594 624.219 201.719C625.569 203.08 626.326 204.919 626.326 206.836C626.326 208.753 625.569 210.592 624.219 211.953L499.219 337.031C498.544 337.71 497.741 338.247 496.855 338.609C495.969 338.972 495.019 339.152 494.062 339.141Z" fill="white"/>
<path d="M556.641 180.938C579.297 180.938 601.953 189.609 619.219 206.875L494.063 331.953C459.531 297.422 459.531 241.406 494.063 206.875C511.328 189.531 533.984 180.938 556.641 180.938ZM556.641 166.406C529.141 166.406 503.281 177.109 483.828 196.563C464.375 216.016 453.672 241.875 453.672 269.375C453.672 296.875 464.375 322.734 483.828 342.188C486.545 344.897 490.225 346.419 494.063 346.419C497.9 346.419 501.58 344.897 504.297 342.188L629.375 217.109C635 211.484 635 202.266 629.375 196.641C619.859 187.034 608.529 179.414 596.042 174.223C583.556 169.033 570.163 166.376 556.641 166.406Z" fill="#151B28"/>
<path d="M593.828 232.187C566.25 204.609 521.641 204.609 494.062 232.187C466.484 259.766 466.484 304.375 494.062 331.953L593.828 232.187Z" fill="#2AEFC8"/>
</svg>
