<svg width="800" height="800" viewBox="0 0 800 800" fill="none" xmlns="http://www.w3.org/2000/svg">
<path d="M571.953 311.953C417.656 278.125 544.141 64.1407 332.734 81.8751C121.328 99.6094 -79.1405 586.406 296.172 700.391C671.484 814.375 864.922 376.172 571.953 311.953Z" fill="#FFA500"/>
<path d="M595.156 417.578C594.609 417.578 594.063 417.5 593.516 417.422C589.609 416.484 587.187 412.578 588.125 408.75C607.187 327.891 556.875 246.641 476.016 227.578C436.875 218.359 396.406 224.922 362.187 246.094C327.969 267.266 304.062 300.469 294.844 339.687C293.906 343.594 290 346.016 286.172 345.078C282.266 344.141 279.844 340.234 280.781 336.406C290.859 293.437 317.109 257.031 354.609 233.828C392.109 210.625 436.406 203.359 479.375 213.516C568.047 234.375 623.125 323.437 602.266 412.109C601.406 415.391 598.437 417.578 595.156 417.578Z" fill="#151B28"/>
<path d="M557.344 283.516C552.734 283.516 548.281 281.563 545.156 278.203C526.015 257.5 501.328 243.125 473.828 236.641C463.125 234.141 452.187 232.812 441.328 232.812C424.14 232.812 407.187 235.937 391.015 242.109C389.062 242.812 387.109 243.203 385.078 243.203C383.828 243.203 382.5 243.047 381.25 242.734C375.859 241.484 371.562 237.656 369.531 232.5C366.25 223.984 370.547 214.375 379.062 211.094C399.062 203.438 419.922 199.609 441.25 199.609C454.687 199.609 468.203 201.172 481.406 204.297C515.469 212.344 545.937 230.078 569.531 255.703C575.703 262.422 575.312 272.891 568.594 279.141C565.547 281.953 561.562 283.516 557.344 283.516Z" fill="white"/>
<path d="M441.25 206.875C454.141 206.875 467.031 208.359 479.765 211.328C512.344 218.984 541.562 236.016 564.219 260.547C567.734 264.297 567.5 270.234 563.672 273.75C561.875 275.391 559.609 276.25 557.344 276.25C554.844 276.25 552.344 275.234 550.469 273.281C530.39 251.484 504.375 236.406 475.469 229.531C464.14 226.875 452.656 225.547 441.25 225.547C423.281 225.547 405.391 228.828 388.359 235.391C387.266 235.781 386.094 236.016 385 236.016C384.297 236.016 383.594 235.937 382.891 235.781C380 235.078 377.422 233.047 376.328 230C374.453 225.156 376.875 219.766 381.719 217.969C400.859 210.625 421.016 206.875 441.25 206.875ZM441.25 192.422C419.062 192.422 397.344 196.484 376.484 204.453C364.219 209.141 358.047 222.969 362.734 235.234C365.547 242.578 371.797 248.047 379.531 249.922C381.328 250.312 383.125 250.547 385 250.547C387.891 250.547 390.781 250 393.516 248.984H393.594C408.906 243.125 425 240.156 441.328 240.156C451.641 240.156 462.031 241.406 472.187 243.75C498.359 249.922 521.719 263.516 539.922 283.203C544.375 288.047 550.781 290.859 557.422 290.859C563.437 290.859 569.141 288.594 573.594 284.531C583.281 275.625 583.828 260.547 574.922 250.859C550.312 224.219 518.594 205.703 483.125 197.344C469.375 194.063 455.312 192.422 441.25 192.422Z" fill="#151B28"/>
<path d="M388.438 235.391C416.25 224.766 446.406 222.734 475.547 229.609C504.531 236.406 530.469 251.562 550.547 273.359C554.063 277.109 559.922 277.422 563.75 273.906C565.391 272.422 566.172 270.469 566.484 268.437C566.25 268.125 566.094 267.656 565.859 267.344C543.203 242.812 513.984 225.781 481.406 218.125C448.594 210.391 414.688 212.656 383.359 224.687C380.078 225.937 378.047 228.906 377.578 232.187C378.906 234.062 380.859 235.312 382.969 235.781C384.688 236.172 386.563 236.094 388.438 235.391Z" fill="#FFA500"/>
<path d="M327.734 551.875C327.422 551.875 327.187 551.875 326.875 551.797C324.922 551.328 323.672 549.375 324.14 547.344C329.844 523.203 309.765 513.281 288.594 502.812C269.453 493.359 249.687 483.594 254.687 462.266C255.156 460.312 257.109 459.062 259.14 459.531C261.094 460 262.344 461.953 261.875 463.984C258.437 478.516 270.937 485.859 291.875 496.25C302.734 501.641 313.984 507.187 321.953 515.078C331.406 524.531 334.531 535.625 331.328 549.062C330.937 550.703 329.453 551.875 327.734 551.875Z" fill="#151B28"/>
<path d="M251.172 427.891C247.812 427.891 244.453 427.5 241.172 426.719C229.844 424.063 220.234 417.109 214.062 407.188C207.969 397.266 206.015 385.547 208.672 374.219C213.359 354.453 230.781 340.625 251.094 340.625C254.453 340.625 257.812 341.016 261.094 341.797C284.531 347.344 299.062 370.859 293.515 394.219C288.984 414.063 271.484 427.891 251.172 427.891Z" fill="white"/>
<path d="M251.172 347.891C253.906 347.891 256.719 348.203 259.531 348.828C279.062 353.438 291.172 373.047 286.562 392.578C282.656 409.297 267.656 420.625 251.172 420.625C248.437 420.625 245.625 420.313 242.812 419.688C223.281 415.078 211.172 395.469 215.781 375.938C219.687 359.219 234.687 347.891 251.172 347.891ZM251.172 333.438C239.922 333.438 228.75 337.266 219.844 344.219C210.781 351.328 204.297 361.406 201.719 372.578C195.312 399.844 212.266 427.266 239.531 433.75C243.359 434.688 247.266 435.078 251.25 435.078C262.5 435.078 273.672 431.25 282.578 424.297C291.641 417.187 298.125 407.109 300.703 395.938C307.109 368.672 290.156 341.25 262.891 334.766C258.984 333.906 255.078 333.438 251.172 333.438Z" fill="#151B28"/>
<path d="M269.141 464.063C267.109 464.063 265.078 463.828 263.047 463.359L250.625 460.391C243.75 458.75 237.891 454.531 234.141 448.516C230.391 442.5 229.219 435.391 230.859 428.438L252.734 335.547C255.547 323.516 266.172 315.078 278.594 315.078C280.625 315.078 282.656 315.313 284.688 315.781L297.109 318.75C303.984 320.391 309.844 324.609 313.594 330.625C317.344 336.641 318.516 343.75 316.875 350.703L295 443.594C292.109 455.625 281.484 464.063 269.141 464.063Z" fill="white"/>
<path d="M278.516 322.422C280 322.422 281.484 322.578 282.969 322.969L295.391 325.938C305.781 328.359 312.187 338.75 309.766 349.141L287.891 442.031C285.781 450.937 277.891 456.953 269.141 456.953C267.656 456.953 266.172 456.797 264.687 456.406L252.266 453.438C241.875 451.016 235.469 440.625 237.891 430.234L259.766 337.344C261.797 328.359 269.766 322.422 278.516 322.422ZM278.516 307.891C271.016 307.891 263.594 310.469 257.734 315.078C251.719 319.766 247.422 326.484 245.703 333.984L223.828 426.875C221.797 435.625 223.203 444.687 227.969 452.422C232.734 460.078 240.156 465.469 248.984 467.5L261.406 470.469C263.984 471.094 266.562 471.406 269.141 471.406C276.641 471.406 284.062 468.828 289.922 464.219C295.937 459.531 300.234 452.812 301.953 445.312L323.828 352.422C328.125 334.297 316.797 316.094 298.672 311.797L286.25 308.828C283.75 308.203 281.094 307.891 278.516 307.891Z" fill="#151B28"/>
<path d="M264.766 456.328L260.781 455.391C250.469 452.969 244.063 442.578 246.484 432.266L265.234 352.5C267.656 342.188 278.047 335.781 288.359 338.203L292.344 339.141C302.656 341.563 309.063 351.953 306.641 362.266L287.891 442.031C285.469 452.344 275.078 458.75 264.766 456.328Z" fill="#2AEFC8"/>
<path d="M465.547 584.297C465.234 584.297 465 584.297 464.687 584.219C462.734 583.75 461.484 581.797 461.953 579.766C465.078 566.328 472.813 557.812 485.547 553.594C496.172 550.078 508.75 550.078 520.859 550.156C544.219 550.234 558.672 549.219 562.109 534.687C562.578 532.734 564.531 531.484 566.563 531.953C568.516 532.422 569.766 534.375 569.297 536.406C564.297 557.656 542.266 557.656 520.859 557.578C497.188 557.5 474.844 557.422 469.141 581.562C468.75 583.125 467.266 584.297 465.547 584.297Z" fill="#151B28"/>
<path d="M607.266 511.719C603.906 511.719 600.547 511.328 597.266 510.547C585.937 507.891 576.328 500.938 570.156 491.016C563.984 481.094 562.109 469.375 564.766 458.047C569.453 438.281 586.875 424.453 607.187 424.453C610.547 424.453 613.906 424.844 617.187 425.625C628.516 428.281 638.125 435.234 644.297 445.156C650.469 455.078 652.344 466.797 649.687 478.125C645 497.891 627.578 511.719 607.266 511.719Z" fill="white"/>
<path d="M607.188 431.719C609.922 431.719 612.735 432.031 615.547 432.656C635.078 437.266 647.188 456.875 642.578 476.406C638.672 493.125 623.672 504.453 607.188 504.453C604.453 504.453 601.641 504.141 598.828 503.516C579.297 498.906 567.188 479.297 571.797 459.766C575.781 442.969 590.703 431.719 607.188 431.719ZM607.188 417.266C595.938 417.266 584.766 421.094 575.86 428.047C566.797 435.156 560.313 445.234 557.735 456.406C554.61 469.609 556.875 483.281 563.985 494.844C571.094 506.406 582.344 514.453 595.547 517.578C599.375 518.516 603.281 518.906 607.266 518.906C618.516 518.906 629.688 515.078 638.594 508.125C647.656 501.016 654.141 490.938 656.719 479.766C659.844 466.563 657.578 452.891 650.469 441.328C643.36 429.766 632.11 421.719 618.906 418.594C615 417.656 611.094 417.266 607.188 417.266Z" fill="#151B28"/>
<path d="M579.922 537.187C577.891 537.187 575.859 536.953 573.828 536.484L561.406 533.516C554.531 531.875 548.672 527.656 544.922 521.641C541.172 515.625 540 508.516 541.641 501.563L563.516 408.672C566.328 396.641 576.953 388.203 589.375 388.203C591.406 388.203 593.438 388.437 595.469 388.906L607.891 391.875C614.766 393.516 620.625 397.734 624.375 403.75C628.125 409.766 629.297 416.875 627.656 423.828L605.781 516.719C602.891 528.75 592.266 537.187 579.922 537.187Z" fill="white"/>
<path d="M589.219 395.547C590.703 395.547 592.187 395.703 593.672 396.094L606.094 399.062C616.484 401.484 622.891 411.875 620.469 422.266L598.594 515.156C596.484 524.063 588.594 530.078 579.844 530.078C578.359 530.078 576.875 529.922 575.391 529.531L562.969 526.563C552.578 524.141 546.172 513.75 548.594 503.359L570.469 410.469C572.578 401.563 580.469 395.547 589.219 395.547ZM589.219 381.094C581.719 381.094 574.297 383.672 568.437 388.281C562.422 392.969 558.125 399.688 556.406 407.188L534.531 500.078C532.5 508.828 533.906 517.891 538.672 525.625C543.437 533.281 550.859 538.672 559.687 540.703L572.109 543.672C574.687 544.297 577.266 544.609 579.844 544.609C587.344 544.609 594.766 542.031 600.625 537.422C606.641 532.734 610.937 526.016 612.656 518.516L634.531 425.625C638.828 407.5 627.5 389.297 609.375 385L596.953 382.031C594.453 381.406 591.875 381.094 589.219 381.094Z" fill="#151B28"/>
<path d="M562.891 526.484L566.875 527.422C577.188 529.844 587.578 523.438 590 513.125L608.75 433.359C611.172 423.047 604.766 412.656 594.453 410.234L590.469 409.297C580.156 406.875 569.766 413.281 567.344 423.594L548.594 503.359C546.172 513.75 552.578 524.063 562.891 526.484Z" fill="#2AEFC8"/>
</svg>
