<svg width="800" height="800" viewBox="0 0 800 800" fill="none" xmlns="http://www.w3.org/2000/svg">
<path d="M571.953 311.953C417.656 278.125 544.141 64.1406 332.734 81.875C121.328 99.6094 -79.1405 586.406 296.172 700.391C671.484 814.375 864.922 376.172 571.953 311.953Z" fill="#FFA500"/>
<g clip-path="url(#clip0_2574_53)">
<path d="M235.5 294.5L400 341L355 406L196.5 370.5L235.5 294.5Z" fill="#2AEFC8"/>
<path d="M261 325.5L425.5 342.5L425.5 583L246 534L261 325.5Z" fill="#2AEFC8"/>
<path d="M431.5 338.5L551.5 280L568 515.201L440.5 581L431.5 338.5Z" fill="#2AEFC8"/>
<path d="M355 239.132L519.5 285.632L439.5 330.5L267 295L355 239.132Z" fill="#2AEFC8"/>
<path d="M423.5 331.5L562.5 271L611.5 345L472.931 414.78L423.5 331.5Z" fill="#2AEFC8"/>
<path d="M556.817 274.405C554.456 271.116 550.456 269.634 546.542 270.202C546.393 270.168 546.244 270.105 546.095 270.085L385.794 247.112C384.043 246.856 382.256 247.043 380.589 247.638L252.2 293.583C252.143 293.604 252.093 293.639 252.037 293.659C251.902 293.715 251.774 293.798 251.632 293.846C250.93 294.151 250.278 294.511 249.675 294.933C249.491 295.065 249.314 295.197 249.129 295.342C248.47 295.868 247.867 296.443 247.363 297.1C247.335 297.142 247.293 297.163 247.264 297.204L193.051 369.612C190.973 372.388 190.434 376.002 191.618 379.242C192.802 382.49 195.561 384.941 198.979 385.799L246.023 397.659V511.214C246.023 515.776 249.08 519.813 253.554 521.149L425.804 572.536C425.861 572.564 425.925 572.543 425.981 572.571C426.903 572.82 427.868 572.979 428.832 572.986C428.853 572.986 428.882 573 428.91 573C429.924 573 430.924 572.82 431.917 572.536C432.229 572.439 432.52 572.308 432.839 572.176C433.257 572.024 433.668 571.913 434.08 571.705L557.683 504.733C561.065 502.898 563.157 499.423 563.157 495.649V382.116L604.968 362.522C607.783 361.206 609.861 358.735 610.655 355.785C611.442 352.829 610.868 349.692 609.074 347.193L556.817 274.405ZM385.376 268.049L510.496 285.981L427.499 323.66L296.067 300.015L385.376 268.049ZM260.504 314.735L411.104 341.834L366.839 406.667L219.48 369.522L260.504 314.735ZM267.297 503.528V403.018L368.832 428.615C369.718 428.829 370.605 428.947 371.491 428.947C374.987 428.947 378.334 427.258 380.341 424.322L418.273 368.774V548.567L267.297 503.528ZM541.876 489.529L439.54 544.966V380.925L458.226 419.69C459.438 422.19 461.623 424.128 464.282 425.042C465.438 425.458 466.643 425.645 467.842 425.645C469.423 425.645 470.99 425.298 472.444 424.634L541.862 392.106L541.876 489.529ZM472.919 401.377L443.086 339.494L544.507 293.452L584.46 349.097L472.919 401.377Z" fill="white"/>
<path d="M572.138 261.57C569.529 257.849 565.111 256.172 560.786 256.814C560.622 256.775 560.457 256.705 560.293 256.681L383.199 230.687C381.264 230.397 379.29 230.609 377.449 231.283L235.61 283.271C235.547 283.294 235.492 283.333 235.429 283.357C235.28 283.42 235.139 283.514 234.983 283.568C234.207 283.913 233.486 284.321 232.821 284.798C232.617 284.947 232.421 285.096 232.217 285.261C231.489 285.856 230.823 286.506 230.267 287.251C230.235 287.298 230.188 287.321 230.157 287.368L170.264 369.299C167.968 372.44 167.373 376.53 168.681 380.196C169.99 383.871 173.037 386.644 176.813 387.615L228.786 401.035V529.525C228.786 534.688 232.162 539.255 237.106 540.767L427.4 598.913C427.463 598.945 427.533 598.921 427.596 598.952C428.614 599.235 429.68 599.415 430.745 599.423C430.769 599.423 430.8 599.438 430.832 599.438C431.952 599.438 433.056 599.235 434.153 598.913C434.498 598.804 434.819 598.655 435.172 598.506C435.634 598.334 436.088 598.208 436.543 597.973L573.094 522.192C576.831 520.116 579.142 516.183 579.142 511.914V383.448L625.333 361.277C628.443 359.788 630.739 356.991 631.616 353.654C632.486 350.309 631.851 346.76 629.869 343.931L572.138 261.57ZM382.737 254.378L520.965 274.669L429.273 317.303L284.072 290.549L382.737 254.378ZM244.783 307.204L411.16 337.868L362.258 411.228L199.462 369.197L244.783 307.204ZM252.289 520.829V407.099L364.46 436.062C365.439 436.305 366.418 436.438 367.398 436.438C371.26 436.438 374.958 434.527 377.175 431.205L419.08 368.351V571.791L252.289 520.829ZM555.631 504.988L442.575 567.717V382.1L463.218 425.964C464.558 428.792 466.971 430.986 469.909 432.02C471.186 432.49 472.518 432.702 473.842 432.702C475.589 432.702 477.32 432.31 478.926 431.558L555.616 394.752L555.631 504.988ZM479.451 405.242L446.492 335.22L558.538 283.122L602.676 346.086L479.451 405.242Z" fill="black"/>
</g>
<defs>
<clipPath id="clip0_2574_53">
<rect width="464" height="464" fill="white" transform="translate(168 183)"/>
</clipPath>
</defs>
</svg>
