<svg width="800" height="800" viewBox="0 0 800 800" fill="none" xmlns="http://www.w3.org/2000/svg">
<path d="M571.953 311.953C417.656 278.125 544.141 64.1407 332.734 81.8751C121.328 99.6094 -79.1405 586.406 296.172 700.391C671.484 814.375 864.922 376.172 571.953 311.953Z" fill="#FFA500"/>
<path d="M460.469 523.047V500.781H394.141V523.047C394.141 534.375 385 543.516 373.672 543.516H333.359C312.734 543.516 296.094 560.234 296.094 580.781H558.516C558.516 560.156 541.797 543.516 521.25 543.516H480.937C469.609 543.516 460.469 534.375 460.469 523.047Z" fill="white"/>
<path d="M460.469 500.781V523.047C460.469 534.375 469.609 543.516 480.937 543.516H521.25C541.875 543.516 558.516 560.234 558.516 580.781H296.016C296.016 560.156 312.734 543.516 333.281 543.516H373.594C384.922 543.516 394.062 534.375 394.062 523.047V500.781H460.469ZM460.469 486.25H394.141C386.172 486.25 379.688 492.734 379.688 500.703V522.969C379.688 526.25 377.031 528.984 373.672 528.984H333.359C304.844 528.984 281.562 552.188 281.562 580.781C281.562 588.75 288.047 595.234 296.016 595.234H558.437C566.406 595.234 572.891 588.75 572.891 580.781C572.891 552.266 549.688 528.984 521.094 528.984H480.781C477.5 528.984 474.766 526.328 474.766 522.969V500.781C474.922 492.734 468.438 486.25 460.469 486.25Z" fill="#151B28"/>
<path d="M521.172 543.516H480.937C469.609 543.516 460.469 534.375 460.469 523.047V500.781H412.813V523.047C412.813 534.375 403.672 543.516 392.344 543.516H352.109C331.484 543.516 314.844 560.234 314.844 580.781H558.594C558.516 560.234 541.797 543.516 521.172 543.516Z" fill="#FFA500"/>
<path d="M427.266 507.969C380.391 507.969 336.25 489.688 303.125 456.563C269.922 423.438 251.719 379.297 251.719 332.344C251.719 235.547 330.469 156.719 427.344 156.719C524.219 156.719 602.969 235.469 602.969 332.344C602.969 379.297 584.687 423.359 551.562 456.563C518.281 489.766 474.219 507.969 427.266 507.969ZM420.547 352.812C411.016 365.078 383.359 395.078 340.937 395.625C330.312 395.781 324.922 399.687 325 407.266C325.078 416.484 332.578 428.359 344.062 437.422C358.594 448.906 378.047 455.234 398.828 455.234H400.625C429.687 454.766 451.953 442.266 460.078 421.719C467.578 402.812 461.406 381.094 443.672 363.359L420.547 352.812ZM448.281 328.125C463.75 330.234 503.516 339.141 525.156 375.547C527.813 380 532.109 385.234 537.578 385.234C542.812 385.234 548.672 380.469 553.125 372.578C562.266 356.406 566.172 326.094 546.953 293.984C533.594 271.641 514.531 258.906 494.688 258.906C471.719 258.906 453.125 275.703 445.859 302.812L448.281 328.125ZM399.609 203.359C379.453 203.359 351.406 217.187 334.297 247.969C321.562 270.859 320.078 293.906 330.156 311.172C338.672 325.625 354.297 333.828 373.047 333.828C379.219 333.828 385.781 332.891 392.344 331.172L413.047 316.406C407.188 301.953 395 263.047 415.703 226.094C418.281 221.562 420.703 215.156 417.891 210.469C415.313 206.016 408.437 203.359 399.609 203.359Z" fill="white"/>
<path d="M427.266 164.063C520.234 164.063 595.625 239.453 595.625 332.422C595.625 425.469 520.234 500.781 427.266 500.781C334.297 500.781 258.906 425.469 258.906 332.422C258.906 239.453 334.297 164.063 427.266 164.063ZM373.047 341.094C380.156 341.094 387.656 340.078 395.547 337.812L422.109 318.828C422.109 318.828 398.125 272.266 422.031 229.531C433.672 208.75 420.469 196.016 399.609 196.016C377.5 196.016 346.875 210.234 327.969 244.375C299.453 295.625 326.406 341.094 373.047 341.094ZM537.578 392.5C560.937 392.5 583.672 341.172 553.203 290.313C537.422 264.063 515.469 251.641 494.688 251.641C469.844 251.641 446.797 269.375 438.516 302.187L441.641 334.609C441.641 334.609 493.906 337.109 518.984 379.141C524.453 388.516 531.016 392.5 537.578 392.5ZM398.828 462.5H400.703C468.125 461.406 492.344 400.469 447.813 357.266L418.203 343.75C418.203 343.75 389.844 387.734 340.859 388.359C292.344 389.063 324.375 462.5 398.828 462.5ZM427.266 149.531C402.578 149.531 378.672 154.375 356.094 163.906C334.297 173.125 314.766 186.328 297.969 203.125C281.172 219.922 267.969 239.453 258.75 261.25C249.219 283.828 244.375 307.734 244.375 332.422C244.375 357.109 249.219 381.094 258.75 403.594C267.969 425.391 281.172 444.922 297.969 461.719C314.766 478.516 334.297 491.719 356.094 500.859C378.672 510.391 402.578 515.234 427.266 515.234C451.953 515.234 475.859 510.391 498.438 500.859C520.234 491.641 539.766 478.438 556.563 461.719C573.359 444.922 586.562 425.391 595.781 403.594C605.312 381.016 610.156 357.109 610.156 332.422C610.156 307.734 605.312 283.828 595.781 261.25C586.562 239.453 573.359 219.922 556.563 203.125C539.766 186.328 520.234 173.125 498.438 163.906C475.859 154.375 451.953 149.531 427.266 149.531ZM373.047 326.641C356.875 326.641 343.516 319.688 336.406 307.5C327.578 292.5 329.141 272.109 340.625 251.484C356.328 223.203 381.563 210.547 399.609 210.547C406.875 210.547 410.859 212.656 411.641 214.063C412.109 214.844 412.188 217.5 409.375 222.5C389.453 258.125 397.813 295.313 404.297 313.75L389.219 324.531C383.672 325.937 378.203 326.641 373.047 326.641ZM453.203 303.516C459.766 280.391 475.547 266.172 494.688 266.172C511.953 266.172 528.75 277.656 540.781 297.813C557.266 325.313 555.703 353.438 546.875 369.062C543.203 375.625 539.219 378.047 537.578 378.047C536.719 378.047 534.297 376.719 531.406 371.875C510.547 336.797 474.141 325.547 455 321.875L453.203 303.516ZM398.828 447.969C379.688 447.969 361.797 442.187 348.516 431.719C337.344 422.891 332.266 412.813 332.188 407.188C332.188 405.313 332.734 404.844 332.891 404.688C333.906 403.828 336.484 402.891 341.016 402.812C381.875 402.266 409.844 376.406 422.578 361.641L439.375 369.297C454.375 384.766 459.531 403.203 453.281 418.984C446.25 436.719 426.484 447.578 400.469 447.969H398.828Z" fill="#151B28"/>
<path d="M572.812 417.109C567.187 416.094 561.641 412.031 556.953 404.141C553.828 398.906 550.234 394.219 546.406 390.156C537.266 395.156 526.953 392.734 518.906 379.375C516.016 374.453 512.656 370.156 509.141 366.25C492.812 360.312 479.609 359.609 479.609 359.609L478.125 344.297C470.469 340.938 463.281 338.75 457.266 337.344C458.828 341.406 460.078 343.828 460.078 343.828L443.75 355.547L447.891 357.422C451.953 361.328 455.234 365.469 458.203 369.609L485.937 382.188C530.469 425.469 506.25 486.406 438.828 487.422C405.391 487.969 380.312 473.75 366.875 457.656C316.328 441.172 300.156 389.141 340.937 388.594C366.172 388.281 385.859 376.406 399.141 365C382.969 362.031 370.078 353.125 362.344 340.391C332.344 335.547 313.281 310.391 316.797 278.125C304.063 301.562 296.875 328.594 296.875 357.188C296.875 408.125 319.531 453.75 355.234 484.609C377.109 494.922 401.484 500.781 427.266 500.781C489.375 500.781 543.594 467.109 572.812 417.109ZM425.156 222.266C452.578 216.406 473.828 229.766 460 254.375C456.562 260.547 454.141 266.797 452.5 273.047C475.312 244.219 515.937 243.75 544.219 277.813C561.328 281.563 578.359 293.672 591.25 315.156C592.812 317.734 594.141 320.312 595.391 322.891C592.734 275.859 570.781 233.984 537.266 205.078C515.469 194.766 491.016 188.906 465.312 188.906C446.484 188.906 428.359 192.031 411.406 197.812C422.734 201.094 429.062 209.766 425.156 222.266Z" fill="#2AEFC8"/>
<path d="M397.031 332.422C397.031 340.441 400.217 348.131 405.887 353.801C411.557 359.471 419.247 362.656 427.266 362.656C435.284 362.656 442.974 359.471 448.645 353.801C454.315 348.131 457.5 340.441 457.5 332.422C457.5 324.403 454.315 316.713 448.645 311.043C442.974 305.373 435.284 302.188 427.266 302.188C419.247 302.188 411.557 305.373 405.887 311.043C400.217 316.713 397.031 324.403 397.031 332.422Z" fill="#2AEFC8"/>
<path d="M427.266 302.187C443.984 302.187 457.5 315.703 457.5 332.422C457.5 349.141 443.984 362.656 427.266 362.656C410.547 362.656 397.031 349.141 397.031 332.422C397.031 315.703 410.547 302.187 427.266 302.187ZM427.266 288.906C403.281 288.906 383.75 308.438 383.75 332.422C383.75 356.406 403.281 375.938 427.266 375.938C451.25 375.938 470.781 356.406 470.781 332.422C470.781 308.438 451.25 288.906 427.266 288.906Z" fill="#151B28"/>
<path d="M417.188 332.422C417.187 333.745 417.448 335.056 417.955 336.279C418.461 337.501 419.203 338.612 420.139 339.548C421.075 340.484 422.186 341.226 423.409 341.733C424.632 342.239 425.942 342.5 427.266 342.5C428.589 342.5 429.9 342.239 431.122 341.733C432.345 341.226 433.456 340.484 434.392 339.548C435.328 338.612 436.07 337.501 436.577 336.279C437.083 335.056 437.344 333.745 437.344 332.422C437.344 331.098 437.083 329.788 436.577 328.565C436.07 327.342 435.328 326.231 434.392 325.296C433.456 324.36 432.345 323.617 431.122 323.111C429.9 322.604 428.589 322.344 427.266 322.344C425.942 322.344 424.632 322.604 423.409 323.111C422.186 323.617 421.075 324.36 420.139 325.296C419.203 326.231 418.461 327.342 417.955 328.565C417.448 329.788 417.187 331.098 417.188 332.422Z" fill="white"/>
<path d="M427.266 322.344C432.813 322.344 437.344 326.875 437.344 332.422C437.344 337.969 432.813 342.5 427.266 342.5C421.719 342.5 417.188 337.969 417.188 332.422C417.188 326.875 421.719 322.344 427.266 322.344ZM427.266 315C417.656 315 409.844 322.812 409.844 332.422C409.844 342.031 417.656 349.844 427.266 349.844C436.875 349.844 444.688 342.031 444.688 332.422C444.688 322.812 436.875 315 427.266 315Z" fill="#151B28"/>
<path d="M412.812 556.875C412.812 560.708 414.335 564.384 417.046 567.095C419.756 569.805 423.432 571.328 427.266 571.328C431.099 571.328 434.775 569.805 437.485 567.095C440.196 564.384 441.719 560.708 441.719 556.875C441.719 553.042 440.196 549.366 437.485 546.655C434.775 543.945 431.099 542.422 427.266 542.422C423.432 542.422 419.756 543.945 417.046 546.655C414.335 549.366 412.812 553.042 412.812 556.875Z" fill="white"/>
<path d="M427.266 542.422C435.234 542.422 441.719 548.906 441.719 556.875C441.719 564.844 435.234 571.328 427.266 571.328C419.297 571.328 412.813 564.844 412.813 556.875C412.813 548.906 419.297 542.422 427.266 542.422ZM427.266 535.078C415.234 535.078 405.469 544.844 405.469 556.875C405.469 568.906 415.234 578.672 427.266 578.672C439.297 578.672 449.062 568.906 449.062 556.875C449.062 544.844 439.297 535.078 427.266 535.078Z" fill="#151B28"/>
<path d="M465.234 556.875C465.234 558.077 465.712 559.229 466.562 560.079C467.411 560.929 468.564 561.406 469.766 561.406C470.967 561.406 472.12 560.929 472.97 560.079C473.819 559.229 474.297 558.077 474.297 556.875C474.297 555.673 473.819 554.521 472.97 553.671C472.12 552.821 470.967 552.344 469.766 552.344C468.564 552.344 467.411 552.821 466.562 553.671C465.712 554.521 465.234 555.673 465.234 556.875Z" fill="white"/>
<path d="M469.766 552.344C472.266 552.344 474.297 554.375 474.297 556.875C474.297 559.375 472.266 561.406 469.766 561.406C467.266 561.406 465.234 559.375 465.234 556.875C465.312 554.375 467.266 552.344 469.766 552.344ZM469.766 547.969C464.844 547.969 460.859 551.953 460.859 556.875C460.859 561.797 464.844 565.781 469.766 565.781C474.687 565.781 478.672 561.797 478.672 556.875C478.672 551.953 474.687 547.969 469.766 547.969Z" fill="#151B28"/>
<path d="M380.234 556.875C380.234 558.077 380.712 559.229 381.562 560.079C382.411 560.929 383.564 561.406 384.766 561.406C385.967 561.406 387.12 560.929 387.97 560.079C388.819 559.229 389.297 558.077 389.297 556.875C389.297 555.673 388.819 554.521 387.97 553.671C387.12 552.821 385.967 552.344 384.766 552.344C383.564 552.344 382.411 552.821 381.562 553.671C380.712 554.521 380.234 555.673 380.234 556.875Z" fill="white"/>
<path d="M384.766 552.344C387.266 552.344 389.297 554.375 389.297 556.875C389.297 559.375 387.266 561.406 384.766 561.406C382.266 561.406 380.234 559.375 380.234 556.875C380.234 554.375 382.266 552.344 384.766 552.344ZM384.766 547.969C379.844 547.969 375.859 551.953 375.859 556.875C375.859 561.797 379.844 565.781 384.766 565.781C389.687 565.781 393.672 561.797 393.672 556.875C393.672 551.953 389.687 547.969 384.766 547.969Z" fill="#151B28"/>
</svg>
