<svg width="800" height="800" viewBox="0 0 800 800" fill="none" xmlns="http://www.w3.org/2000/svg">
<rect x="646.796" y="143.918" width="27.3943" height="164.321" rx="13.6971" transform="rotate(58.7006 646.796 143.918)" fill="#2E2E42"/>
<rect x="582.525" y="110" width="30.0743" height="164.321" rx="15.0372" transform="rotate(29.3437 582.525 110)" fill="#2E2E42"/>
<path d="M583.248 128.049C584.506 125.813 587.338 125.019 589.574 126.276V126.276C591.811 127.534 592.604 130.366 591.347 132.602L515.375 267.741C514.118 269.978 511.286 270.771 509.049 269.514V269.514C506.813 268.257 506.019 265.425 507.277 263.188L583.248 128.049Z" fill="white"/>
<path d="M584.472 129.749C585.202 128.451 586.845 127.991 588.142 128.72V128.72C589.44 129.449 589.9 131.093 589.171 132.39L511.287 270.929C510.558 272.227 508.915 272.687 507.617 271.958V271.958C506.32 271.228 505.859 269.585 506.589 268.288L584.472 129.749Z" fill="#2AEFC8"/>
<path d="M571.953 311.953C417.656 278.125 544.141 64.1406 332.734 81.875C121.328 99.6094 -79.1405 586.406 296.172 700.391C671.484 814.375 864.922 376.172 571.953 311.953Z" fill="#FFA500"/>
<rect x="644.555" y="155" width="9.29075" height="164.321" rx="4.64538" transform="rotate(58.1341 644.555 155)" fill="white"/>
<rect x="643.743" y="157.52" width="5.14616" height="164.321" rx="2.57308" transform="rotate(58.1341 643.743 157.52)" fill="#2AEFC8"/>
<path d="M502.5 251.875L508.514 250.25C512.207 249.252 515.975 248.559 519.782 248.178L520.508 248.105C524.535 247.703 528.591 247.693 532.62 248.077L533.971 248.206C537.77 248.567 541.515 249.359 545.135 250.566V250.566C547.749 251.437 550.287 252.521 552.724 253.807L559.062 257.152C567.259 261.479 574.212 267.832 579.258 275.606V275.606C581.825 279.56 583.866 283.832 585.329 288.313L585.686 289.405C587.306 294.366 588.304 299.509 588.657 304.715L588.729 305.782C589.158 312.108 588.745 318.462 587.502 324.679L587.188 326.25H552.188L554.233 320.836C556.357 315.213 556.657 309.065 555.091 303.262V303.262C553.224 296.34 548.827 290.372 542.771 286.536L541.441 285.694C536.213 282.383 530.152 280.625 523.963 280.625H515L502.5 251.875Z" fill="#2AEFC8"/>
<path d="M286 333.711C286 320.784 288.321 307.962 292.852 295.855L292.982 295.507C295.556 288.628 298.848 282.041 302.804 275.853L304.13 273.778C307.31 268.804 311.019 264.188 315.193 260.012V260.012C319.436 255.766 324.134 252 329.201 248.782L333.578 246.002C340.63 241.524 348.163 237.851 356.035 235.054V235.054C366.57 231.311 377.608 229.173 388.779 228.711L394.519 228.474C402.144 228.159 409.78 228.752 417.265 230.239V230.239C428.556 232.482 439.353 236.732 449.144 242.786L452.196 244.673C469.141 255.151 483.053 269.876 492.552 287.389V287.389C498.328 298.037 502.375 309.536 504.54 321.456L507 335H465.393L460.669 312.263C458.616 302.381 454.437 293.012 448.475 284.869V284.869C434.275 265.478 411.069 254.581 387.086 256.162L384.992 256.3C377.948 256.765 371.046 258.495 364.616 261.409V261.409C357.502 264.634 351.103 269.245 345.793 274.974L343.49 277.458C338.753 282.568 334.746 288.31 331.584 294.519L330.931 295.8C324.782 307.871 321.577 321.225 321.577 334.771V335H286V333.711Z" fill="#2AEFC8"/>
<rect x="361.25" y="516.875" width="161.875" height="33.75" rx="14" fill="#2AEFC8"/>
<path d="M376.132 281.35V281.35C384.274 278.285 393.2 277.995 401.523 280.525L403.044 280.988L408.182 283.182C410.714 284.263 413.147 285.565 415.452 287.072L416.074 287.479C419.169 289.503 421.979 291.931 424.431 294.699V294.699C427.29 297.927 429.628 301.582 431.361 305.53L431.628 306.137C433.599 310.625 434.835 315.401 435.289 320.282L435.709 324.794L345.968 323.618L345.968 322.436C345.971 316.934 347.039 311.484 349.115 306.389V306.389C350.676 302.557 352.787 298.973 355.382 295.749L358.916 291.359V291.359C363.242 287.442 368.258 284.363 373.708 282.277L376.132 281.35Z" fill="#2AEFC8"/>
<path d="M265 365H619.688L610.782 402.439L596.59 439.064L570.988 473.248L532.028 498.75H364.5L335.934 482.04C329.958 478.545 324.459 474.291 319.574 469.385V469.385C300.674 450.404 285.764 427.832 275.721 403L273.75 398.125L265 365Z" fill="#2AEFC8"/>
<path d="M258.178 326.965V326.694C258.178 299.889 265.924 273.684 280.439 251.386C294.954 229.088 315.589 211.695 339.738 201.403C363.888 191.11 390.472 188.378 416.135 193.552C441.798 198.725 465.391 211.573 483.937 230.473C498.529 223.092 514.829 219.988 531.034 221.506C547.24 223.023 562.72 229.102 575.766 239.071C588.812 249.04 598.914 262.51 604.958 277.995C611.002 293.479 612.751 310.375 610.013 326.814C614.039 327.197 617.945 328.426 621.486 330.425C625.028 332.424 633.716 333 630.598 338.432C636.316 338.432 641.732 345.482 642.716 349.502C643.7 353.521 636.981 357.705 636.316 361.792C623.018 443.78 590.123 495.675 537.692 517.506V537.769C537.692 549.765 533.042 561.27 524.766 569.752C516.489 578.235 505.263 583 493.558 583H375.868C364.163 583 352.938 578.235 344.661 569.752C336.384 561.27 331.734 549.765 331.734 537.769V517.506C279.304 495.675 246.409 443.78 233.11 361.792C232.468 357.814 226.796 353.423 227.716 349.502C222.9 346.68 224.28 334.5 233.532 334.5C233.532 326.469 243.754 332.989 247.14 330.933C250.525 328.877 254.279 327.538 258.178 326.995V326.965ZM287.601 326.694H317.023C317.023 306.7 324.773 287.526 338.567 273.389C352.362 259.252 371.071 251.309 390.579 251.309C410.088 251.309 428.797 259.252 442.592 273.389C456.386 287.526 464.136 306.7 464.136 326.694H493.558C493.558 298.703 482.528 274.69 463.216 254.898C443.904 235.105 417.891 230.473 390.579 230.473C361.157 233.5 340.528 237.717 321.216 257.509C301.904 277.302 287.601 298.703 287.601 326.694ZM346.446 326.694H434.713C434.713 314.698 430.063 303.193 421.787 294.711C413.51 286.228 402.284 281.463 390.579 281.463C378.874 281.463 367.649 286.228 359.372 294.711C351.096 303.193 346.446 314.698 346.446 326.694ZM548.461 326.694H579.972C582.194 317.782 582.401 308.469 580.578 299.463C578.755 290.458 574.95 281.997 569.454 274.727C563.957 267.456 556.914 261.568 548.86 257.509C540.807 253.451 531.955 251.331 522.981 251.309C515.92 251.309 509.211 252.576 502.974 254.898C508.181 263.461 512.477 272.688 515.772 282.368C521.376 280.943 527.265 281.237 532.708 283.211C538.151 285.186 542.908 288.755 546.389 293.476C549.87 298.196 551.922 303.861 552.291 309.766C552.659 315.671 551.327 321.557 548.461 326.694ZM508.27 522.693H361.157V537.769C361.157 541.768 362.707 545.603 365.466 548.43C368.225 551.258 371.967 552.846 375.868 552.846H493.558C497.46 552.846 501.202 551.258 503.961 548.43C506.72 545.603 508.27 541.768 508.27 537.769V522.693ZM350.8 492.539H518.626C565.29 477.161 597.538 442.332 610.013 365.5H267C279.475 442.332 304.136 477.161 350.8 492.539Z" fill="white"/>
<path d="M483.051 226.411L486.091 229.435L489.937 227.537C504.444 220.377 520.647 217.366 536.758 218.838C552.868 220.31 568.258 226.206 581.227 235.876C594.196 245.547 604.24 258.614 610.248 273.634C616.256 288.655 617.995 305.044 615.273 320.99L614.183 327.376L620.633 327.974C624.088 328.295 627.44 329.324 630.48 330.998C633.519 332.672 636.181 334.954 638.299 337.703C640.417 340.451 641.946 343.607 642.791 346.972C643.635 350.338 643.777 353.842 643.207 357.264L643.206 357.266C629.262 441.15 595.107 492.537 542.117 514.066L538.375 515.586V519.625V540.625C538.375 551.466 534.069 561.862 526.403 569.528C518.737 577.194 508.341 581.5 497.5 581.5H372.5C361.659 581.5 351.263 577.194 343.597 569.528C335.931 561.862 331.625 551.466 331.625 540.625V519.625V515.586L327.883 514.066C274.894 492.537 240.739 441.151 226.794 357.269C226.244 353.938 226.367 350.53 227.157 347.248C227.947 343.964 229.387 340.872 231.393 338.156C233.399 335.439 235.929 333.152 238.835 331.43C241.74 329.709 244.961 328.587 248.308 328.133L253.5 327.428V322.188V322.156V321.875C253.5 295.281 261.376 269.282 276.135 247.159C290.894 225.037 311.875 207.781 336.43 197.569C360.986 187.357 388.015 184.646 414.109 189.779C440.204 194.912 464.193 207.659 483.051 226.411ZM272.75 321.875V327.875H278.75H310H316V321.875C316 302.746 323.599 284.401 337.125 270.875C350.651 257.349 368.996 249.75 388.125 249.75C407.254 249.75 425.599 257.349 439.125 270.875C452.651 284.401 460.25 302.746 460.25 321.875V327.875H466.25H497.5H503.5V321.875C503.5 291.276 491.344 261.93 469.707 240.293C448.07 218.656 418.724 206.5 388.125 206.5C357.526 206.5 328.18 218.656 306.543 240.293C284.906 261.93 272.75 291.276 272.75 321.875ZM335.25 321.875V327.875H341.25H435H441V321.875C441 307.852 435.429 294.403 425.513 284.487C415.597 274.571 402.148 269 388.125 269C374.102 269 360.653 274.571 350.737 284.487C340.821 294.403 335.25 307.852 335.25 321.875ZM550.604 318.896L545.469 327.875H555.812H589.281H593.941L595.095 323.36C597.68 313.24 597.921 302.663 595.799 292.436C593.678 282.209 589.25 272.601 582.852 264.344C576.455 256.087 568.257 249.4 558.884 244.791C549.511 240.182 539.209 237.774 528.764 237.75H528.75C520.541 237.75 512.723 239.188 505.452 241.829L498.491 244.357L502.408 250.642C507.7 259.133 512.072 268.293 515.429 277.914L517.23 283.078L522.538 281.761C527.35 280.568 532.406 280.813 537.079 282.468C541.752 284.122 545.836 287.112 548.825 291.067C551.814 295.022 553.576 299.767 553.893 304.715C554.209 309.662 553.065 314.593 550.604 318.896ZM519.125 525V519H513.125H356.875H350.875V525V540.625C350.875 546.36 353.153 551.861 357.209 555.916C361.264 559.972 366.765 562.25 372.5 562.25H497.5C503.235 562.25 508.736 559.972 512.791 555.916C516.847 551.861 519.125 546.36 519.125 540.625V525ZM344.038 499.462L344.934 499.75H345.875H524.125H525.066L525.962 499.462C578.609 482.533 610.81 434.76 624.231 354.11L625.393 347.125H618.312H251.688H244.607L245.769 354.11C259.189 434.76 291.391 482.533 344.038 499.462Z" stroke="#2E2E42" stroke-width="12"/>
</svg>
