<svg width="800" height="800" viewBox="0 0 800 800" fill="none" xmlns="http://www.w3.org/2000/svg">
<path d="M571.953 311.953C417.656 278.125 544.141 64.1407 332.734 81.8751C121.328 99.6094 -79.1405 586.406 296.172 700.391C671.484 814.375 864.922 376.172 571.953 311.953Z" fill="#FFA500"/>
<path d="M559.765 587.812C557.109 587.812 554.453 587.5 551.719 586.797C529.531 581.172 513.515 560.547 496.562 538.75C476.328 512.734 455.39 485.859 421.562 477.266C412.265 474.922 403.515 473.75 394.844 473.75C368.672 473.75 349.062 484.687 330.078 495.234C311.875 505.391 294.687 514.922 273.047 514.922C267.031 514.922 260.859 514.141 254.687 512.578C242.656 509.531 223.281 498.125 228.594 455.625C232.969 420.469 253.906 373.437 281.797 335.859C300.703 310.391 339.062 267.656 382.89 267.656C388.125 267.656 393.359 268.281 398.359 269.531C399.297 269.766 400.156 270.234 400.937 270.781C437.969 298.984 463.515 309.453 495.156 309.453C506.953 309.453 519.922 307.891 534.687 304.766C535.772 304.535 536.896 304.562 537.969 304.844C551.64 308.281 563.828 318.203 574.219 334.219C583.125 348.047 590.547 366.016 596.172 387.656C606.484 427.109 609.844 475.937 605 515.156C599.14 562.031 583.125 587.812 559.765 587.812Z" fill="white"/>
<path d="M382.969 274.922C387.578 274.922 392.11 275.469 396.641 276.641C432.031 303.594 459.61 316.797 495.235 316.797C507.735 316.797 521.172 315.156 536.25 311.953C611.094 330.859 621.485 580.625 559.766 580.625C557.735 580.625 555.703 580.391 553.516 579.844C509.61 568.75 489.141 486.953 423.281 470.312C412.969 467.734 403.516 466.562 394.844 466.562C341.953 466.562 314.922 507.812 273.047 507.812C267.735 507.812 262.266 507.187 256.406 505.703C189.61 488.672 291.875 274.922 382.969 274.922ZM382.891 260.469C335.938 260.469 295.781 305 276.016 331.562C261.953 350.469 249.453 371.953 239.766 393.516C230 415.469 223.672 436.641 221.406 454.766C219.453 470.312 220.547 483.594 224.61 494.141C229.766 507.5 239.531 516.328 252.891 519.687C259.61 521.406 266.406 522.266 273.047 522.266C296.485 522.266 315.391 511.797 333.594 501.641C352.578 491.016 370.547 481.016 394.844 481.016C402.891 481.016 411.016 482.109 419.766 484.297C451.172 492.266 471.328 518.125 490.86 543.203C508.594 566.016 525.391 587.578 550 593.828C553.281 594.687 556.563 595.078 559.766 595.078C575.703 595.078 603.594 584.844 612.188 516.094C614.61 496.484 615.078 474.219 613.594 451.641C612.031 428.75 608.438 405.937 603.203 385.859C597.344 363.437 589.61 344.766 580.313 330.391C568.906 312.734 555.235 301.797 539.766 297.891C537.649 297.316 535.424 297.262 533.281 297.734C518.985 300.781 506.563 302.266 495.235 302.266C465.313 302.266 441.016 292.187 405.391 265.078C403.828 263.906 402.031 263.047 400.156 262.578C394.61 261.172 388.828 260.469 382.891 260.469Z" fill="#151B28"/>
<path d="M553.516 579.766C509.609 568.672 489.219 486.875 423.359 470.234C342.578 449.766 316.172 520.703 256.484 505.625C249.453 503.828 244.297 499.922 240.781 494.219C253.594 420.625 332.969 303.594 400.625 320.703C448.359 357.031 481.953 368.359 540.234 356.016C571.484 363.906 591.562 412.109 599.687 465.625C601.875 530 586.797 588.203 553.516 579.766Z" fill="#2AEFC8"/>
<path d="M553.516 579.766C509.609 568.672 489.219 486.875 423.359 470.234C342.578 449.766 316.172 520.703 256.484 505.625C249.453 503.828 244.297 499.922 240.781 494.219C253.594 420.625 332.969 303.594 400.625 320.703C448.359 357.031 481.953 368.359 540.234 356.016C571.484 363.906 591.562 412.109 599.687 465.625C601.875 530 586.797 588.203 553.516 579.766Z" fill="#2AEFC8"/>
<path d="M485.859 393.516C479.297 390 477.578 382.031 481.953 375.703C485.234 370 493.438 367.422 499.766 371.797C506.328 375.313 508.047 383.281 503.672 389.609C500.391 395.313 492.422 397.109 485.859 393.516Z" fill="#151B28"/>
<path d="M511.719 420.625C508.438 426.328 500.234 428.906 493.906 424.531C487.344 421.016 485.625 413.047 490 406.719C493.281 401.016 501.484 398.438 507.813 402.813C513.281 407.031 515.938 415.156 511.719 420.625ZM521.016 391.25C514.453 387.734 512.734 379.766 517.109 373.438C520.391 367.734 528.594 365.156 534.922 369.531C541.484 373.047 543.203 381.016 538.828 387.344C534.609 392.813 526.719 394.531 521.016 391.25Z" fill="black"/>
<path d="M547.344 420.313C544.063 426.016 535.859 428.594 529.531 424.219C522.969 420.703 521.25 412.734 525.625 406.406C528.906 400.703 537.109 398.125 543.438 402.5C549.141 405.781 550.859 413.75 547.344 420.313Z" fill="#151B28"/>
<path d="M350.469 364.531C350.469 368.676 351.285 372.78 352.871 376.61C354.457 380.439 356.782 383.918 359.713 386.849C362.644 389.78 366.123 392.105 369.953 393.691C373.782 395.277 377.886 396.094 382.031 396.094C386.176 396.094 390.28 395.277 394.11 393.691C397.939 392.105 401.418 389.78 404.349 386.849C407.28 383.918 409.605 380.439 411.191 376.61C412.777 372.78 413.594 368.676 413.594 364.531C413.594 356.16 410.268 348.132 404.349 342.213C398.43 336.294 390.402 332.969 382.031 332.969C373.66 332.969 365.632 336.294 359.713 342.213C353.794 348.132 350.469 356.16 350.469 364.531Z" fill="white"/>
<path d="M357.188 372.813C357.187 376.773 357.968 380.694 359.483 384.353C360.998 388.012 363.22 391.336 366.02 394.136C368.82 396.936 372.145 399.158 375.803 400.673C379.462 402.189 383.384 402.969 387.344 402.969C391.304 402.969 395.225 402.189 398.884 400.673C402.543 399.158 405.867 396.936 408.667 394.136C411.468 391.336 413.689 388.012 415.204 384.353C416.72 380.694 417.5 376.773 417.5 372.813C417.5 368.852 416.72 364.931 415.204 361.272C413.689 357.613 411.468 354.289 408.667 351.489C405.867 348.689 402.543 346.467 398.884 344.952C395.225 343.436 391.304 342.656 387.344 342.656C383.384 342.656 379.462 343.436 375.803 344.952C372.145 346.467 368.82 348.689 366.02 351.489C363.22 354.289 360.998 357.613 359.483 361.272C357.968 364.931 357.187 368.852 357.188 372.813Z" fill="#FFA500"/>
<path d="M393.516 318.828C368.047 312.422 342.735 327.422 336.328 352.891C329.844 378.438 345 403.672 370.469 410.156C395.078 416.406 421.25 401.563 427.735 376.016C434.141 350.547 419.063 325.313 393.516 318.828ZM375.156 391.719C359.375 387.734 350.156 372.344 354.141 356.563C358.125 340.703 373.516 331.563 389.297 335.547C404.297 339.297 414.375 354.922 410.313 370.703C406.406 386.563 390.938 395.703 375.156 391.719Z" fill="black"/>
<path d="M464.297 282.344C460.547 282.344 457.422 279.453 457.109 275.703L454.297 241.719C453.801 235.696 454.497 229.634 456.345 223.88C458.193 218.126 461.157 212.793 465.068 208.185C468.979 203.578 473.76 199.787 479.137 197.028C484.514 194.27 490.383 192.598 496.406 192.109C500.537 191.769 504.56 190.617 508.245 188.72C511.93 186.823 515.205 184.218 517.882 181.055C520.56 177.891 522.587 174.231 523.849 170.283C525.11 166.335 525.581 162.177 525.234 158.047L521.328 110.625C521.177 108.709 521.791 106.812 523.035 105.348C524.28 103.883 526.054 102.972 527.969 102.813C529.884 102.661 531.782 103.275 533.246 104.52C534.71 105.764 535.622 107.538 535.781 109.453L539.687 156.875C540.184 162.898 539.488 168.96 537.64 174.714C535.791 180.468 532.827 185.801 528.916 190.408C525.005 195.016 520.225 198.807 514.847 201.566C509.47 204.324 503.602 205.996 497.578 206.484C489.219 207.188 481.563 211.094 476.094 217.5C470.625 223.906 468.047 232.109 468.75 240.469L471.562 274.453C471.714 276.369 471.1 278.267 469.855 279.731C468.611 281.195 466.837 282.106 464.922 282.266C464.766 282.344 464.531 282.344 464.297 282.344Z" fill="#151B28"/>
</svg>
