<svg width="40" height="40" viewBox="0 0 40 40" fill="none" xmlns="http://www.w3.org/2000/svg">
<path d="M3.33333 21.6667L13.3333 31.6667" stroke="#0083E5" stroke-width="3" stroke-linecap="round" stroke-linejoin="round"/>
<path d="M6 23L27.5 17.5L12 29" fill="#D9F1FF"/>
<path d="M11.6667 30L14.3333 27.6666C14.8333 27 15.6667 26.6666 16.6667 26.6666H23.3333C25.1667 26.6666 26.8333 26 28 24.6666L35.6667 17.3333C36.3098 16.7255 36.6852 15.8871 36.7102 15.0026C36.7352 14.118 36.4078 13.2598 35.8 12.6166C35.1922 11.9735 34.3538 11.5981 33.4693 11.5731C32.5847 11.5481 31.7265 11.8755 31.0833 12.4833L24.0833 18.9833" fill="#D9F1FF"/>
<path d="M11.6667 30L14.3333 27.6666C14.8333 27 15.6667 26.6666 16.6667 26.6666H23.3333C25.1667 26.6666 26.8333 26 28 24.6666L35.6667 17.3333C36.3098 16.7255 36.6852 15.8871 36.7102 15.0026C36.7352 14.118 36.4078 13.2598 35.8 12.6166C35.1922 11.9735 34.3538 11.5981 33.4693 11.5731C32.5847 11.5481 31.7265 11.8755 31.0833 12.4833L24.0833 18.9833" stroke="#0083E5" stroke-width="3" stroke-linecap="round" stroke-linejoin="round"/>
<path d="M18.3333 19.9999H21.6667C22.5507 19.9999 23.3986 19.6487 24.0237 19.0236C24.6488 18.3985 25 17.5506 25 16.6666C25 15.7825 24.6488 14.9347 24.0237 14.3096C23.3986 13.6844 22.5507 13.3333 21.6667 13.3333H16.6667C15.6667 13.3333 14.8333 13.6666 14.3333 14.3333L5 23.3333" fill="#D9F1FF"/>
<path d="M18.3333 19.9999H21.6667C22.5507 19.9999 23.3986 19.6487 24.0237 19.0236C24.6488 18.3985 25 17.5506 25 16.6666C25 15.7825 24.6488 14.9347 24.0237 14.3096C23.3986 13.6844 22.5507 13.3333 21.6667 13.3333H16.6667C15.6667 13.3333 14.8333 13.6666 14.3333 14.3333L5 23.3333" stroke="#0083E5" stroke-width="3" stroke-linecap="round" stroke-linejoin="round"/>
</svg>
