<svg width="800" height="800" viewBox="0 0 800 800" fill="none" xmlns="http://www.w3.org/2000/svg">
<path d="M533.828 294.453C379.609 260.625 506.094 46.6407 294.609 64.3751C83.1249 82.1094 -117.266 568.906 258.047 682.891C633.359 796.875 826.797 358.75 533.828 294.453Z" fill="#FFA500"/>
<path d="M236.172 215.234L166.719 520V215.234H236.172Z" fill="#2E2E42"/>
<path d="M250.547 215.234L176.25 541.25L166.719 539.062V520L236.172 215.234H250.547Z" fill="#2E2E42"/>
<path d="M265 215.234L189.922 544.375L176.25 541.25L250.547 215.234H265Z" fill="#2D2D41"/>
<path d="M279.375 215.234L203.594 547.5L189.922 544.375L265 215.234H279.375Z" fill="#2D2D40"/>
<path d="M293.75 215.234L217.266 550.625L203.594 547.5L279.375 215.234H293.75Z" fill="#2C2C3F"/>
<path d="M308.125 215.234L230.938 553.75L217.266 550.625L293.75 215.234H308.125Z" fill="#2B2B3E"/>
<path d="M322.5 215.234L244.609 556.875L230.938 553.75L308.125 215.234H322.5Z" fill="#2A2A3D"/>
<path d="M336.875 215.234L258.281 560L244.609 556.875L322.5 215.234H336.875Z" fill="#2A2A3C"/>
<path d="M351.25 215.234L271.953 563.125L258.281 560L336.875 215.234H351.25Z" fill="#29293B"/>
<path d="M365.625 215.234L285.625 566.25L271.953 563.125L351.25 215.234H365.625Z" fill="#28283A"/>
<path d="M378.359 215.234L379.922 215.625L299.297 569.375L285.625 566.25L365.625 215.234H378.359Z" fill="#282839"/>
<path d="M299.291 569.275L379.974 215.547L393.685 218.675L313.002 572.402L299.291 569.275Z" fill="#272738"/>
<path d="M312.969 572.395L393.652 218.668L407.363 221.795L326.68 575.522L312.969 572.395Z" fill="#262637"/>
<path d="M326.647 575.515L407.33 221.788L421.041 224.915L340.358 578.643L326.647 575.515Z" fill="#252536"/>
<path d="M340.326 578.635L421.009 224.907L434.719 228.034L354.036 581.762L340.326 578.635Z" fill="#252534"/>
<path d="M354.004 581.755L434.687 228.027L448.397 231.155L367.714 584.882L354.004 581.755Z" fill="#242433"/>
<path d="M367.606 584.858L448.289 231.13L461.999 234.257L381.316 587.985L367.606 584.858Z" fill="#232332"/>
<path d="M381.284 587.977L461.967 234.249L475.677 237.376L394.994 591.104L381.284 587.977Z" fill="#222231"/>
<path d="M394.962 591.097L475.645 237.369L489.355 240.496L408.672 594.224L394.962 591.097Z" fill="#222230"/>
<path d="M408.64 594.217L489.323 240.489L503.033 243.617L422.35 597.344L408.64 594.217Z" fill="#21212F"/>
<path d="M422.319 597.336L503.002 243.609L516.712 246.736L436.029 600.464L422.319 597.336Z" fill="#20202E"/>
<path d="M516.641 246.797L529.141 249.688V255.078L449.688 603.672L436.016 600.547L516.641 246.797Z" fill="#20202D"/>
<path d="M529.141 318.125L463.359 606.797L449.688 603.672L529.141 255.078V318.125Z" fill="#1F1F2C"/>
<path d="M529.141 381.172L477.031 609.844L463.359 606.797L529.141 318.125V381.172Z" fill="#1E1E2B"/>
<path d="M529.141 444.219L491.328 610.078H477.734L477.031 609.844L529.141 381.172V444.219Z" fill="#1D1D2A"/>
<path d="M529.141 507.266L505.703 610.078H491.328L529.141 444.219V507.266Z" fill="#1D1D29"/>
<path d="M529.141 570.313L520.156 610.078H505.703L529.141 507.266V570.313Z" fill="#1C1C28"/>
<path d="M520.156 610.078L529.141 570.312V610.078H520.156Z" fill="#1C1C28"/>
<path d="M193.75 494.531C186.719 502.266 183.672 510.234 185.469 516.016C187.344 522.109 194.531 527.188 205.234 529.609L482.031 592.734C492.734 595.156 501.406 593.672 505.703 588.984C509.844 584.453 510.547 576.094 507.578 566.094L433.75 374.453C432.812 372.266 433.672 370.078 434.141 367.734L460.469 252.187L382.187 234.375L355.859 349.922C355.312 352.266 352.266 353.906 350.547 355.469L193.75 494.531Z" fill="white"/>
<path d="M505.703 589.062C509.844 584.531 510.547 576.172 507.578 566.172L468.125 463.75C449.141 466.953 426.797 467.734 388.516 431.172C361.484 405.312 321.172 403.75 292.812 406.719L193.75 494.531C186.719 502.266 183.672 510.234 185.469 516.016C187.344 522.109 194.531 527.187 205.234 529.609L482.031 592.734C492.734 595.234 501.406 593.672 505.703 589.062Z" fill="#2AEFC8"/>
<path d="M272.969 511.875C265.547 510.156 260.859 502.734 262.5 495.234C264.219 487.813 271.641 483.125 279.141 484.766C286.562 486.484 291.25 493.906 289.609 501.406C287.891 508.828 280.391 513.516 272.969 511.875ZM277.969 489.766C273.203 488.672 268.516 491.641 267.422 496.406C266.328 501.172 269.297 505.859 274.062 506.953C278.828 508.047 283.516 505.078 284.609 500.313C285.703 495.547 282.734 490.781 277.969 489.766Z" fill="#29293B"/>
<path d="M528.672 169.453C512.344 165.703 502.031 149.375 505.781 133.047C509.531 116.719 525.859 106.406 542.187 110.156C558.516 113.906 568.828 130.234 565.078 146.562C561.328 162.891 545 173.203 528.672 169.453Z" fill="#29293B"/>
<path d="M539.687 121.016C529.297 118.672 518.984 125.156 516.562 135.547C514.219 145.937 520.703 156.25 531.094 158.672C541.484 161.016 551.797 154.531 554.219 144.141C556.641 133.672 550.078 123.359 539.687 121.016Z" fill="#FFA500"/>
<path d="M423.75 176.094C413.359 173.75 406.875 163.359 409.219 152.969C411.562 142.578 421.953 136.094 432.344 138.437C442.734 140.781 449.219 151.172 446.875 161.562C444.531 171.953 434.141 178.437 423.75 176.094ZM430.781 145.312C424.219 143.828 417.656 147.969 416.094 154.531C414.609 161.094 418.75 167.656 425.312 169.219C431.875 170.703 438.437 166.562 440 160C441.484 153.437 437.344 146.875 430.781 145.312Z" fill="#29293B"/>
<path d="M470.703 202.578C463.672 201.016 459.297 193.984 460.937 187.031C462.5 180 469.531 175.625 476.484 177.266C483.516 178.828 487.891 185.859 486.25 192.812C484.687 199.766 477.656 204.219 470.703 202.578ZM475.391 181.875C470.937 180.859 466.484 183.672 465.547 188.125C464.531 192.578 467.344 197.031 471.797 197.969C476.25 198.984 480.703 196.172 481.641 191.797C482.656 187.266 479.844 182.891 475.391 181.875Z" fill="#29293B"/>
<path d="M368.281 388.359C360.547 386.563 355.703 378.828 357.422 371.094C359.219 363.359 366.953 358.516 374.687 360.234C382.422 362.031 387.266 369.766 385.547 377.5C383.75 385.234 376.016 390.078 368.281 388.359Z" fill="#29293B"/>
<path d="M373.516 365.391C368.594 364.297 363.672 367.344 362.578 372.266C361.484 377.188 364.531 382.109 369.453 383.203C374.375 384.297 379.297 381.25 380.391 376.328C381.563 371.406 378.438 366.484 373.516 365.391Z" fill="#FFA500"/>
<path d="M431.953 556.953C422.187 554.687 416.016 545 418.281 535.156C420.547 525.391 430.312 519.219 440.078 521.484C449.844 523.75 456.016 533.516 453.75 543.281C451.484 553.047 441.719 559.141 431.953 556.953ZM438.281 528.984C432.656 527.734 427.031 531.25 425.703 536.875C424.453 542.5 427.969 548.125 433.594 549.453C439.219 550.703 444.844 547.187 446.172 541.562C447.5 535.937 443.906 530.312 438.281 528.984Z" fill="#29293B"/>
<path d="M353.75 494.375C343.672 492.109 337.344 482.031 339.609 471.953C341.875 461.875 351.953 455.547 362.031 457.813C372.109 460.078 378.438 470.156 376.094 480.234C373.906 490.313 363.828 496.641 353.75 494.375Z" fill="#29293B"/>
<path d="M360.078 466.875C355 465.703 349.922 468.906 348.828 473.984C347.656 479.063 350.859 484.141 355.938 485.234C361.016 486.406 366.094 483.203 367.188 478.125C368.281 473.125 365.078 468.047 360.078 466.875Z" fill="#FFA500"/>
<path d="M399.453 415.078L399.141 416.25V415.078H399.453Z" fill="#2B2B3E"/>
<path d="M399.922 415.078L399.141 418.203V416.25L399.453 415.078H399.922Z" fill="#2A2A3D"/>
<path d="M400.313 415.078L399.141 420.234V418.203L399.922 415.078H400.313Z" fill="#2A2A3C"/>
<path d="M400.781 415.078L399.375 421.406H399.141V420.234L400.313 415.078H400.781Z" fill="#29293B"/>
<path d="M401.25 415.078L399.844 421.406H399.375L400.781 415.078H401.25Z" fill="#28283A"/>
<path d="M401.719 415.078L400.234 421.406H399.844L401.25 415.078H401.719Z" fill="#282839"/>
<path d="M402.109 415.078L400.703 421.406H400.234L401.719 415.078H402.109Z" fill="#272738"/>
<path d="M402.578 415.078L401.172 421.406H400.703L402.109 415.078H402.578Z" fill="#262637"/>
<path d="M403.047 415.078L401.641 421.406H401.172L402.578 415.078H403.047Z" fill="#252536"/>
<path d="M403.516 415.078L402.031 421.406H401.641L403.047 415.078H403.516Z" fill="#252534"/>
<path d="M403.984 415.078L402.5 421.406H402.031L403.516 415.078H403.984Z" fill="#242433"/>
<path d="M404.375 415.078L402.969 421.406H402.5L403.984 415.078H404.375Z" fill="#232332"/>
<path d="M404.844 415.078L403.438 421.406H402.969L404.375 415.078H404.844Z" fill="#222231"/>
<path d="M405.312 415.078L403.828 421.406H403.438L404.844 415.078H405.312Z" fill="#222230"/>
<path d="M405.469 416.328L404.297 421.406H403.828L405.312 415.078H405.469V416.328Z" fill="#21212F"/>
<path d="M405.469 418.281L404.766 421.406H404.297L405.469 416.328V418.281Z" fill="#20202E"/>
<path d="M405.469 420.234L405.234 421.406H404.766L405.469 418.281V420.234Z" fill="#20202D"/>
<path d="M405.234 421.406L405.469 420.234V421.406H405.234Z" fill="#1F1F2C"/>
<path d="M397.891 411.953L396.094 420.078V411.953H397.891Z" fill="#2E2E42"/>
<path d="M398.359 411.953L396.094 422.031V420.078L397.891 411.953H398.359Z" fill="#2E2E42"/>
<path d="M398.828 411.953L396.094 423.984V422.031L398.359 411.953H398.828Z" fill="#2D2D41"/>
<path d="M399.219 411.953L396.406 424.531L396.094 424.453V423.984L398.828 411.953H399.219Z" fill="#2D2D40"/>
<path d="M399.688 411.953L396.875 424.531H396.406L399.219 411.953H399.688Z" fill="#2C2C3F"/>
<path d="M400.156 411.953L397.266 424.531H396.875L399.688 411.953H400.156Z" fill="#2B2B3E"/>
<path d="M400.625 411.953L397.734 424.531H397.266L400.156 411.953H400.625Z" fill="#2A2A3D"/>
<path d="M401.094 411.953L398.203 424.531H397.734L400.625 411.953H401.094Z" fill="#2A2A3C"/>
<path d="M401.484 411.953L398.672 424.531H398.203L401.094 411.953H401.484Z" fill="#29293B"/>
<path d="M401.953 411.953L399.062 424.531H398.672L401.484 411.953H401.953Z" fill="#28283A"/>
<path d="M402.422 411.953L399.531 424.531H399.062L401.953 411.953H402.422Z" fill="#282839"/>
<path d="M402.891 411.953L400 424.531H399.531L402.422 411.953H402.891Z" fill="#272738"/>
<path d="M403.281 411.953L400.469 424.531H400L402.891 411.953H403.281Z" fill="#262637"/>
<path d="M403.75 411.953L400.938 424.531H400.469L403.281 411.953H403.75Z" fill="#252536"/>
<path d="M404.219 411.953L401.328 424.531H400.938L403.75 411.953H404.219Z" fill="#252534"/>
<path d="M404.687 411.953L401.797 424.531H401.328L404.219 411.953H404.687Z" fill="#242433"/>
<path d="M405.078 411.953L402.266 424.531H401.797L404.688 411.953H405.078Z" fill="#232332"/>
<path d="M405.547 411.953L402.734 424.531H402.266L405.078 411.953H405.547Z" fill="#222231"/>
<path d="M406.016 411.953L403.125 424.531H402.734L405.547 411.953H406.016Z" fill="#222230"/>
<path d="M406.484 411.953L403.594 424.531H403.125L406.016 411.953H406.484Z" fill="#21212F"/>
<path d="M406.875 411.953L404.063 424.531H403.594L406.484 411.953H406.875Z" fill="#20202E"/>
<path d="M407.344 411.953L404.531 424.531H404.062L406.875 411.953H407.344Z" fill="#20202D"/>
<path d="M407.813 411.953L404.922 424.531H404.531L407.344 411.953H407.813Z" fill="#1F1F2C"/>
<path d="M408.281 411.953L405.391 424.531H404.922L407.813 411.953H408.281Z" fill="#1E1E2B"/>
<path d="M408.281 411.953L408.594 412.031V412.5L405.859 424.531H405.391L408.281 411.953Z" fill="#1D1D2A"/>
<path d="M408.594 414.453L406.328 424.531H405.859L408.594 412.5V414.453Z" fill="#1D1D29"/>
<path d="M408.594 416.484L406.719 424.531H406.328L408.594 414.453V416.484Z" fill="#1C1C28"/>
<path d="M406.719 424.531L408.594 416.484V424.531H406.719Z" fill="#1C1C28"/>
<path d="M435.547 258.438L419.609 328.125V258.438H435.547Z" fill="#2E2E42"/>
<path d="M436.016 258.438L419.609 330.156V328.125L435.547 258.438H436.016Z" fill="#2E2E42"/>
<path d="M436.484 258.438L419.609 332.109V330.156L436.016 258.438H436.484Z" fill="#2D2D41"/>
<path d="M436.875 258.438L420 332.578L419.609 332.5V332.109L436.484 258.438H436.875Z" fill="#2D2D40"/>
<path d="M437.344 258.438L420.469 332.656H420V332.578L436.875 258.438H437.344Z" fill="#2C2C3F"/>
<path d="M437.813 258.438L420.859 332.656H420.469L437.344 258.438H437.813Z" fill="#2B2B3E"/>
<path d="M438.281 258.438L421.328 332.656H420.859L437.813 258.438H438.281Z" fill="#2A2A3D"/>
<path d="M438.75 258.438L421.797 332.656H421.328L438.281 258.438H438.75Z" fill="#2A2A3C"/>
<path d="M439.141 258.438L422.266 332.656H421.797L438.75 258.438H439.141Z" fill="#29293B"/>
<path d="M439.609 258.438L422.734 332.656H422.266L439.141 258.438H439.609Z" fill="#28283A"/>
<path d="M440.078 258.438L423.125 332.656H422.734L439.609 258.438H440.078Z" fill="#282839"/>
<path d="M440.547 258.438L423.594 332.656H423.125L440.078 258.438H440.547Z" fill="#272738"/>
<path d="M441.016 258.438L424.062 332.656H423.594L440.547 258.438H441.016Z" fill="#262637"/>
<path d="M441.406 258.438L424.531 332.656H424.062L441.016 258.438H441.406Z" fill="#252536"/>
<path d="M441.875 258.438L425 332.656H424.531L441.406 258.438H441.875Z" fill="#252534"/>
<path d="M442.344 258.438L425.391 332.656H425L441.875 258.438H442.344Z" fill="#242433"/>
<path d="M442.812 258.438L425.859 332.656H425.391L442.344 258.438H442.812Z" fill="#232332"/>
<path d="M443.203 258.438L426.328 332.656H425.859L442.813 258.438H443.203Z" fill="#222231"/>
<path d="M443.672 258.438L426.797 332.656H426.328L443.203 258.438H443.672Z" fill="#222230"/>
<path d="M444.141 258.438L427.266 332.656H426.797L443.672 258.438H444.141Z" fill="#21212F"/>
<path d="M444.609 258.438L427.656 332.656H427.266L444.141 258.438H444.609Z" fill="#20202E"/>
<path d="M445.078 258.438L428.125 332.656H427.656L444.609 258.438H445.078Z" fill="#20202D"/>
<path d="M445.469 258.438L428.594 332.656H428.125L445.078 258.438H445.469Z" fill="#1F1F2C"/>
<path d="M445.938 258.438L429.063 332.656H428.594L445.469 258.438H445.938Z" fill="#1E1E2B"/>
<path d="M445.937 258.438L446.328 258.516V258.984L429.531 332.656H429.062L445.937 258.438Z" fill="#1D1D2A"/>
<path d="M446.328 260.938L429.922 332.656H429.531L446.328 258.984V260.938Z" fill="#1D1D29"/>
<path d="M446.328 262.969L430.391 332.656H429.922L446.328 260.938V262.969Z" fill="#1C1C28"/>
<path d="M430.391 332.656L446.328 262.969V332.656H430.391Z" fill="#1C1C28"/>
<path d="M416.406 342.422L413.281 356.094V342.422H416.406Z" fill="#2E2E42"/>
<path d="M416.875 342.422L413.281 358.125V356.094L416.406 342.422H416.875Z" fill="#2E2E42"/>
<path d="M417.266 342.422L413.281 360.078V358.125L416.875 342.422H417.266Z" fill="#2D2D41"/>
<path d="M417.734 342.422L413.594 360.625L413.281 360.547V360.078L417.266 342.422H417.734Z" fill="#2D2D40"/>
<path d="M418.203 342.422L414.062 360.625H413.594L417.734 342.422H418.203Z" fill="#2C2C3F"/>
<path d="M418.672 342.422L414.531 360.625H414.062L418.203 342.422H418.672Z" fill="#2B2B3E"/>
<path d="M419.141 342.422L414.922 360.625H414.531L418.672 342.422H419.141Z" fill="#2A2A3D"/>
<path d="M419.531 342.422L415.391 360.625H414.922L419.141 342.422H419.531Z" fill="#2A2A3C"/>
<path d="M420 342.422L415.859 360.625H415.391L419.531 342.422H420Z" fill="#29293B"/>
<path d="M420.469 342.422L416.328 360.625H415.859L420 342.422H420.469Z" fill="#28283A"/>
<path d="M420.937 342.422L416.797 360.625H416.328L420.469 342.422H420.937Z" fill="#282839"/>
<path d="M421.406 342.422L417.188 360.625H416.797L420.937 342.422H421.406Z" fill="#272738"/>
<path d="M421.797 342.422L417.656 360.625H417.188L421.406 342.422H421.797Z" fill="#262637"/>
<path d="M422.266 342.422L418.125 360.625H417.656L421.797 342.422H422.266Z" fill="#252536"/>
<path d="M422.734 342.422L418.594 360.625H418.125L422.266 342.422H422.734Z" fill="#252534"/>
<path d="M423.203 342.422L419.063 360.625H418.594L422.734 342.422H423.203Z" fill="#242433"/>
<path d="M423.672 342.422L419.453 360.625H419.062L423.203 342.422H423.672Z" fill="#232332"/>
<path d="M424.062 342.422L419.922 360.625H419.453L423.672 342.422H424.062Z" fill="#222231"/>
<path d="M424.531 342.422L420.391 360.625H419.922L424.062 342.422H424.531Z" fill="#222230"/>
<path d="M425 342.422L420.859 360.625H420.391L424.531 342.422H425Z" fill="#21212F"/>
<path d="M425.469 342.422L421.328 360.625H420.859L425 342.422H425.469Z" fill="#20202E"/>
<path d="M425.938 342.422L421.719 360.625H421.328L425.469 342.422H425.938Z" fill="#20202D"/>
<path d="M426.328 342.422L422.188 360.625H421.719L425.938 342.422H426.328Z" fill="#1F1F2C"/>
<path d="M426.797 342.422L422.656 360.625H422.188L426.328 342.422H426.797Z" fill="#1E1E2B"/>
<path d="M426.797 342.422L427.109 342.5V342.891L423.125 360.625H422.656L426.797 342.422Z" fill="#1D1D2A"/>
<path d="M427.109 344.922L423.594 360.625H423.125L427.109 342.891V344.922Z" fill="#1D1D29"/>
<path d="M427.109 346.875L423.984 360.625H423.594L427.109 344.922V346.875Z" fill="#1C1C28"/>
<path d="M423.984 360.625L427.109 346.875V360.625H423.984Z" fill="#1C1C28"/>
</svg>
