<svg width="800" height="800" viewBox="0 0 800 800" fill="none" xmlns="http://www.w3.org/2000/svg">
<path d="M572.031 283.516C417.734 249.688 544.219 35.7032 332.813 53.4376C121.406 71.1719 -79.0624 557.969 296.25 671.953C671.563 785.938 865 347.813 572.031 283.516Z" fill="#FFA500"/>
<path d="M323.359 545.078L393.75 474.687C400.781 467.656 404.688 458.281 404.688 448.359C404.688 439.453 401.563 431.094 395.859 424.297L418.75 401.406C443.75 421.406 474.609 432.344 507.109 432.344C545 432.344 580.625 417.578 607.344 390.859C634.141 364.062 648.828 328.516 648.828 290.625C648.828 252.734 634.063 217.109 607.344 190.391C580.547 163.594 545 148.906 507.109 148.906C469.219 148.906 433.594 163.672 406.875 190.391C380.078 217.187 365.391 252.734 365.391 290.625C365.391 323.125 376.25 353.984 396.328 378.984L373.438 401.875C366.719 396.172 358.281 393.047 349.375 393.047C339.453 393.047 330.078 396.953 323.047 403.984L252.578 474.219C245.547 481.25 241.641 490.625 241.641 500.547C241.641 510.469 245.547 519.844 252.578 526.875L270.703 545C277.734 552.031 287.109 555.938 297.031 555.938C307.031 555.938 316.406 552.031 323.359 545.078Z" fill="#2D2D40"/>
<path d="M421.094 204.375C444.062 181.406 474.609 168.672 507.188 168.672C539.687 168.672 570.234 181.328 593.281 204.375C616.25 227.344 628.906 257.891 628.906 290.469C628.906 322.969 616.25 353.516 593.203 376.563C570.234 399.531 539.687 412.266 507.109 412.266C474.609 412.266 444.063 399.609 421.016 376.563C398.047 353.594 385.312 323.047 385.312 290.469C385.469 257.891 398.125 227.344 421.094 204.375Z" fill="white"/>
<path d="M526.016 205.469C496.641 205.469 469.063 216.875 448.281 237.656C427.5 258.438 416.094 286.016 416.094 315.391C416.094 334.531 420.938 352.891 430.078 369.141C450.781 389.609 478.203 400.859 507.344 400.859C536.719 400.859 564.297 389.453 585.078 368.672C605.859 347.891 617.266 320.312 617.266 290.937C617.266 271.797 612.422 253.438 603.281 237.188C582.5 216.719 555.156 205.469 526.016 205.469Z" fill="#2AEFC8"/>
<path d="M293.281 536.563L258.125 502.188C257.534 501.606 257.064 500.913 256.742 500.148C256.42 499.384 256.253 498.564 256.25 497.734C256.25 496.797 256.484 494.844 258.125 493.281L341.25 410.156C342.891 408.516 344.766 408.281 345.703 408.281C346.641 408.281 348.594 408.516 350.156 410.156L385.313 444.531C386.953 446.172 387.188 448.047 387.188 448.984C387.188 449.922 386.953 451.875 385.313 453.438L302.187 536.563C301.606 537.154 300.913 537.624 300.148 537.945C299.384 538.267 298.564 538.434 297.734 538.438C296.719 538.438 294.844 538.203 293.281 536.563Z" fill="white"/>
<path d="M344.063 422.891C343.125 422.891 341.25 423.125 339.609 424.766L264.297 500L293.203 528.125C294.766 529.766 296.641 530 297.656 530C298.594 530 300.469 529.766 302.109 528.125L377.344 452.891L348.438 424.766C346.953 423.125 345 422.891 344.063 422.891Z" fill="#FFA500"/>
</svg>
