<svg width="800" height="800" viewBox="0 0 800 800" fill="none" xmlns="http://www.w3.org/2000/svg">
<path d="M571.953 311.953C417.656 278.125 544.141 64.1406 332.734 81.8749C121.328 99.6093 -79.1405 586.406 296.172 700.391C671.484 814.375 864.922 376.172 571.953 311.953Z" fill="#FFA500"/>
<path d="M562.656 600.781H375C371.016 600.781 367.734 597.578 367.734 593.516C367.734 589.453 370.937 586.25 375 586.25H562.578C566.562 586.25 569.844 589.453 569.844 593.516C569.844 597.578 566.641 600.781 562.656 600.781Z" fill="#151B28"/>
<path d="M375 600.781C322.969 600.781 273.984 580.547 237.188 543.75C200.391 506.953 180.156 458.047 180.156 405.937C180.156 353.828 200.391 305 237.188 268.125C273.984 231.328 322.891 211.094 375 211.094C427.109 211.094 475.938 231.328 512.813 268.125C549.609 304.922 569.844 353.828 569.844 405.937C569.844 458.047 549.609 506.875 512.813 543.75C476.016 580.547 427.109 600.781 375 600.781Z" fill="white"/>
<path d="M375 218.359C478.594 218.359 562.578 302.344 562.578 405.937C562.578 509.531 478.672 593.516 375 593.516C271.406 593.516 187.422 509.531 187.422 405.937C187.422 302.344 271.406 218.359 375 218.359ZM375 203.828C347.734 203.828 321.25 209.141 296.328 219.688C272.266 229.844 250.625 244.453 232.109 262.969C213.516 281.563 198.984 303.125 188.828 327.187C178.281 352.109 172.969 378.594 172.969 405.859C172.969 433.125 178.281 459.609 188.828 484.531C198.984 508.594 213.594 530.234 232.109 548.75C250.703 567.344 272.266 581.875 296.328 592.031C321.25 602.578 347.734 607.891 375 607.891C402.266 607.891 428.75 602.578 453.672 592.031C477.734 581.875 499.375 567.266 517.891 548.75C536.484 530.156 551.016 508.594 561.172 484.531C571.719 459.609 577.031 433.125 577.031 405.859C577.031 378.594 571.719 352.109 561.172 327.187C551.016 303.125 536.406 281.484 517.891 262.969C499.297 244.375 477.734 229.844 453.672 219.688C428.75 209.219 402.344 203.828 375 203.828Z" fill="#151B28"/>
<path d="M224.453 415.938C224.453 437.934 228.786 459.715 237.203 480.037C245.621 500.359 257.959 518.824 273.513 534.378C289.067 549.932 307.532 562.27 327.854 570.687C348.176 579.105 369.957 583.437 391.953 583.437C413.95 583.437 435.731 579.105 456.053 570.687C476.375 562.27 494.84 549.932 510.394 534.378C525.947 518.824 538.285 500.359 546.703 480.037C555.121 459.715 559.453 437.934 559.453 415.938C559.453 371.514 541.806 328.909 510.394 297.497C478.981 266.085 436.377 248.438 391.953 248.438C347.529 248.438 304.925 266.085 273.513 297.497C242.1 328.909 224.453 371.514 224.453 415.938Z" fill="#2AEFC8"/>
<path d="M331.328 314.609C331.328 320.344 332.458 326.023 334.652 331.322C336.847 336.62 340.064 341.435 344.119 345.49C348.175 349.545 352.989 352.762 358.287 354.957C363.586 357.152 369.265 358.281 375 358.281C380.735 358.281 386.414 357.152 391.712 354.957C397.011 352.762 401.825 349.545 405.881 345.49C409.936 341.435 413.153 336.62 415.348 331.322C417.542 326.023 418.672 320.344 418.672 314.609C418.672 303.027 414.071 291.919 405.881 283.729C397.691 275.539 386.582 270.937 375 270.938C363.417 270.938 352.309 275.539 344.119 283.729C335.929 291.919 331.328 303.027 331.328 314.609Z" fill="white"/>
<path d="M375 278.125C395.156 278.125 411.484 294.453 411.484 314.609C411.484 334.766 395.156 351.094 375 351.094C354.844 351.094 338.516 334.766 338.516 314.609C338.516 294.453 354.922 278.125 375 278.125ZM375 263.672C346.875 263.672 324.062 286.563 324.062 314.609C324.062 342.656 346.953 365.547 375 365.547C403.125 365.547 425.938 342.656 425.938 314.609C425.938 286.563 403.125 263.672 375 263.672Z" fill="#151B28"/>
<path d="M252.793 436.841C256.848 440.897 261.663 444.114 266.961 446.309C272.26 448.504 277.939 449.634 283.674 449.634C289.409 449.635 295.089 448.505 300.387 446.31C305.686 444.116 310.501 440.899 314.556 436.843C318.612 432.788 321.829 427.973 324.023 422.674C326.218 417.376 327.348 411.697 327.347 405.961C327.347 400.226 326.217 394.547 324.022 389.248C321.827 383.95 318.61 379.135 314.554 375.08C310.499 371.024 305.685 367.807 300.386 365.612C295.088 363.417 289.408 362.287 283.673 362.287C277.938 362.287 272.259 363.416 266.96 365.611C261.661 367.806 256.847 371.023 252.791 375.078C248.736 379.134 245.519 383.948 243.324 389.247C241.129 394.546 240 400.225 240 405.96C240 411.695 241.13 417.375 243.325 422.673C245.52 427.972 248.737 432.786 252.793 436.841Z" fill="white"/>
<path d="M283.672 369.453C303.828 369.453 320.156 385.781 320.156 405.937C320.156 426.094 303.828 442.422 283.672 442.422C263.516 442.422 247.188 426.094 247.188 405.937C247.266 385.781 263.594 369.453 283.672 369.453ZM283.672 355C255.547 355 232.734 377.891 232.734 405.937C232.734 433.984 255.625 456.875 283.672 456.875C311.797 456.875 334.609 433.984 334.609 405.937C334.609 377.891 311.797 355 283.672 355Z" fill="#151B28"/>
<path d="M375 540.938C350.937 540.938 331.328 521.328 331.328 497.266C331.328 473.203 350.937 453.594 375 453.594C399.062 453.594 418.672 473.203 418.672 497.266C418.672 521.328 399.141 540.938 375 540.938Z" fill="white"/>
<path d="M375 460.781C395.156 460.781 411.484 477.109 411.484 497.266C411.484 517.422 395.156 533.75 375 533.75C354.844 533.75 338.516 517.422 338.516 497.266C338.516 477.109 354.922 460.781 375 460.781ZM375 446.328C346.875 446.328 324.062 469.219 324.062 497.266C324.062 525.313 346.953 548.203 375 548.203C403.125 548.203 425.938 525.313 425.938 497.266C425.938 469.219 403.125 446.328 375 446.328Z" fill="#151B28"/>
<path d="M466.406 449.609C442.344 449.609 422.734 430 422.734 405.937C422.734 381.875 442.344 362.266 466.406 362.266C490.469 362.266 510.078 381.875 510.078 405.937C510.078 430 490.469 449.609 466.406 449.609Z" fill="white"/>
<path d="M466.406 369.453C486.563 369.453 502.891 385.781 502.891 405.937C502.891 426.094 486.563 442.422 466.406 442.422C446.25 442.422 429.922 426.094 429.922 405.937C429.922 385.781 446.25 369.453 466.406 369.453ZM466.406 355C438.281 355 415.469 377.891 415.469 405.937C415.469 433.984 438.359 456.875 466.406 456.875C494.531 456.875 517.344 433.984 517.344 405.937C517.344 377.891 494.453 355 466.406 355Z" fill="#151B28"/>
<path d="M358.125 405.937C358.125 408.154 358.561 410.348 359.41 412.395C360.258 414.443 361.501 416.303 363.068 417.87C364.635 419.437 366.495 420.68 368.542 421.528C370.59 422.376 372.784 422.813 375 422.813C377.216 422.813 379.41 422.376 381.458 421.528C383.505 420.68 385.365 419.437 386.932 417.87C388.499 416.303 389.742 414.443 390.59 412.395C391.439 410.348 391.875 408.154 391.875 405.937C391.875 403.721 391.439 401.527 390.59 399.48C389.742 397.432 388.499 395.572 386.932 394.005C385.365 392.438 383.505 391.195 381.458 390.347C379.41 389.499 377.216 389.062 375 389.063C372.784 389.062 370.59 389.499 368.542 390.347C366.495 391.195 364.635 392.438 363.068 394.005C361.501 395.572 360.258 397.432 359.41 399.48C358.561 401.527 358.125 403.721 358.125 405.937Z" fill="#FFA500"/>
<path d="M375 389.062C384.297 389.062 391.875 396.641 391.875 405.937C391.875 415.234 384.297 422.813 375 422.813C365.703 422.813 358.125 415.234 358.125 405.937C358.125 396.641 365.703 389.062 375 389.062ZM375 374.609C357.734 374.609 343.594 388.672 343.594 406.016C343.594 423.281 357.656 437.422 375 437.422C392.266 437.422 406.406 423.359 406.406 406.016C406.406 388.672 392.344 374.609 375 374.609Z" fill="#151B28"/>
</svg>
