<svg width="800" height="800" viewBox="0 0 800 800" fill="none" xmlns="http://www.w3.org/2000/svg">
<path d="M543.906 321.562C389.609 287.734 516.094 73.7499 304.688 91.4843C93.2813 109.219 -107.187 596.016 268.125 710C643.438 823.984 836.797 385.859 543.906 321.562Z" fill="#FFA500"/>
<path d="M305.781 184.062L228.75 576.172V184.062H305.781ZM317.969 184.062L237.344 594.531L228.75 592.812V576.172L305.781 184.062H317.969Z" fill="#2E2E42"/>
<path d="M328.984 184.062L330.078 184.297L249.062 596.875L237.344 594.531L317.969 184.062H328.984Z" fill="#2D2D41"/>
<path d="M249.087 596.878L330.144 184.376L341.873 186.681L260.816 599.183L249.087 596.878Z" fill="#2D2D40"/>
<path d="M260.773 599.181L341.83 186.679L353.559 188.984L272.502 601.486L260.773 599.181Z" fill="#2C2C3F"/>
<path d="M272.536 601.497L353.593 188.995L365.322 191.3L284.265 603.802L272.536 601.497Z" fill="#2B2B3E"/>
<path d="M284.223 603.799L365.28 191.297L377.009 193.602L295.952 606.104L284.223 603.799Z" fill="#2A2A3D"/>
<path d="M295.986 606.117L377.043 193.615L388.772 195.92L307.715 608.422L295.986 606.117Z" fill="#2A2A3C"/>
<path d="M307.672 608.418L388.729 195.916L400.458 198.221L319.401 610.723L307.672 608.418Z" fill="#29293B"/>
<path d="M319.359 610.72L400.416 198.218L412.145 200.523L331.088 613.025L319.359 610.72Z" fill="#28283A"/>
<path d="M331.137 612.961L412.194 200.458L423.922 202.763L342.866 615.265L331.137 612.961Z" fill="#282839"/>
<path d="M342.824 615.263L423.881 202.76L435.609 205.065L354.553 617.567L342.824 615.263Z" fill="#272738"/>
<path d="M354.587 617.58L435.644 205.078L447.373 207.382L366.316 619.885L354.587 617.58Z" fill="#262637"/>
<path d="M366.272 619.882L447.329 207.38L459.058 209.685L378.001 622.187L366.272 619.882Z" fill="#252536"/>
<path d="M378.036 622.199L459.093 209.697L470.822 212.002L389.765 624.504L378.036 622.199Z" fill="#252534"/>
<path d="M389.722 624.501L470.779 211.998L482.508 214.303L401.451 626.805L389.722 624.501Z" fill="#242433"/>
<path d="M401.486 626.818L482.543 214.316L494.272 216.62L413.215 629.122L401.486 626.818Z" fill="#232332"/>
<path d="M413.172 629.12L494.229 216.618L505.958 218.923L424.901 631.425L413.172 629.12Z" fill="#222231"/>
<path d="M424.935 631.437L505.992 218.935L517.721 221.239L436.664 633.741L424.935 631.437Z" fill="#222230"/>
<path d="M436.622 633.739L517.678 221.237L529.407 223.542L448.35 636.044L436.622 633.739Z" fill="#21212F"/>
<path d="M448.385 636.057L529.442 223.554L541.171 225.859L460.114 638.361L448.385 636.057Z" fill="#20202E"/>
<path d="M460.071 638.358L541.128 225.856L552.857 228.16L471.8 640.663L460.071 638.358Z" fill="#20202D"/>
<path d="M471.834 640.675L552.891 228.173L564.62 230.478L483.563 642.98L471.834 640.675Z" fill="#1F1F2C"/>
<path d="M483.521 642.978L564.578 230.475L576.307 232.78L495.25 645.282L483.521 642.978Z" fill="#1E1E2B"/>
<path d="M495.285 645.295L576.342 232.792L588.071 235.097L507.014 647.599L495.285 645.295Z" fill="#1D1D2A"/>
<path d="M588.047 235L599.766 237.266L519.141 647.734H508.125L506.953 647.5L588.047 235Z" fill="#1D1D29"/>
<path d="M599.766 237.266L608.359 238.984V255.625L531.328 647.734H519.141L599.766 237.266ZM531.328 647.734L608.359 255.625V647.734H531.328Z" fill="#1C1C28"/>
<path d="M504.687 630.859C503.437 630.859 502.187 630.703 500.937 630.469L261.094 583.359C256.094 582.344 251.719 579.531 248.906 575.234C246.094 571.016 245 565.859 246.015 560.859L313.672 216.328C315.469 207.344 323.281 200.859 332.422 200.859C333.672 200.859 334.922 201.016 336.172 201.25L576.015 248.359C586.406 250.391 593.125 260.469 591.094 270.781L523.437 615.312C521.64 624.375 513.75 630.859 504.687 630.859Z" fill="white"/>
<path d="M504.687 630.859C503.437 630.859 502.187 630.703 500.937 630.469L261.094 583.359C256.094 582.344 251.719 579.531 248.906 575.234C246.094 571.016 245 565.859 246.015 560.859L313.672 216.328C315.469 207.344 323.281 200.859 332.422 200.859C333.672 200.859 334.922 201.016 336.172 201.25L576.015 248.359C586.406 250.391 593.125 260.469 591.094 270.781L523.437 615.312C521.64 624.375 513.75 630.859 504.687 630.859Z" fill="white"/>
<path d="M500.156 620.078C499.063 620.078 497.969 620 496.875 619.766L286.094 578.359C281.719 577.5 277.891 575 275.391 571.25C272.891 567.5 271.953 563.047 272.891 558.594L332.344 255.859C333.906 247.969 340.781 242.266 348.828 242.266C349.922 242.266 351.016 242.344 352.11 242.578L562.891 283.984C571.953 285.781 577.969 294.609 576.172 303.75L516.719 606.484C515.078 614.375 508.203 620.078 500.156 620.078Z" fill="#2AEFC8"/>
<path d="M526.875 214.453C527.969 212.344 528.906 210.078 529.375 207.578C532.187 193.672 523.047 180.156 509.141 177.422L438.516 163.516C424.609 160.781 411.094 169.844 408.359 183.75C407.891 186.172 407.891 188.516 408.047 190.859C388.984 188.516 372.734 194.375 370.234 207.422L553.203 244.609C555.703 232.109 544.141 219.922 526.875 214.453Z" fill="#FFA500"/>
<path d="M553.203 251.641C552.735 251.641 552.266 251.562 551.797 251.484L368.906 214.297C365.156 213.516 362.735 209.844 363.438 206.094C366.25 191.562 381.094 182.656 401.406 183.359C401.485 183.047 401.485 182.734 401.563 182.344C405 164.687 422.266 153.125 439.922 156.562L510.547 170.469C519.141 172.187 526.563 177.109 531.406 184.375C536.25 191.641 537.969 200.312 536.25 208.828C536.172 209.297 536.016 209.766 535.938 210.312C553.047 218.047 562.813 232.031 560.078 245.937C559.688 247.734 558.672 249.375 557.11 250.391C555.938 251.25 554.531 251.641 553.203 251.641ZM381.016 202.578L545.235 235.937C542.344 229.922 534.844 224.297 524.766 221.094C522.813 220.469 521.25 218.984 520.391 217.109C519.61 215.234 519.688 213.047 520.625 211.25C521.563 209.375 522.188 207.812 522.5 206.328C523.516 201.406 522.5 196.484 519.688 192.344C516.875 188.203 512.657 185.312 507.735 184.375L437.11 170.469C426.953 168.516 417.188 175.078 415.157 185.234C414.844 186.719 414.844 188.359 415 190.391C415.156 192.5 414.375 194.531 412.891 196.016C411.406 197.5 409.297 198.125 407.188 197.891C395.86 196.406 386.25 198.281 381.016 202.578Z" fill="#29293A"/>
<path d="M470.312 210.547C463.828 209.297 459.687 203.047 460.937 196.562C462.187 190.078 468.437 185.937 474.922 187.187C481.406 188.437 485.547 194.687 484.297 201.172C482.969 207.656 476.718 211.797 470.312 210.547Z" fill="white"/>
<path d="M430.09 328.285L547.936 352.527L545.889 362.476L428.043 338.234L430.09 328.285ZM334.827 348.199L540.14 390.435L538.093 400.384L332.78 358.147L334.827 348.199ZM327.013 386.086L532.326 428.323L530.279 438.271L324.966 396.034L327.013 386.086ZM319.216 423.898L524.528 466.134L522.481 476.082L317.169 433.845L319.216 423.898ZM311.402 461.785L516.715 504.021L514.668 513.97L309.355 471.733L311.402 461.785ZM303.132 502.129L450.516 532.449L448.469 542.397L301.086 512.077L303.132 502.129Z" fill="#FFA500"/>
</svg>
