<svg width="800" height="800" viewBox="0 0 800 800" fill="none" xmlns="http://www.w3.org/2000/svg">
<path d="M571.953 311.953C417.656 278.125 544.141 64.1406 332.734 81.8749C121.328 99.6093 -79.1405 586.406 296.172 700.391C671.484 814.375 864.922 376.172 571.953 311.953Z" fill="#FFA500"/>
<path d="M332.188 515.312C328.359 515.312 325.234 512.188 325.234 508.359V499.609C325.234 495.781 328.359 492.656 332.188 492.656H507.031C510.859 492.656 513.984 495.781 513.984 499.609V508.359C513.984 512.188 510.859 515.312 507.031 515.312H332.188Z" fill="#2AEFC8"/>
<path d="M506.953 499.531V508.281H332.188V499.531H506.953ZM506.953 485.547H332.188C324.453 485.547 318.203 491.797 318.203 499.531V508.281C318.203 516.016 324.453 522.266 332.188 522.266H507.031C514.766 522.266 521.016 516.016 521.016 508.281V499.531C520.938 491.875 514.688 485.547 506.953 485.547Z" fill="#151B28"/>
<path d="M298.125 590.156C296.016 590.156 294.063 589.219 292.735 587.578C291.406 585.937 290.86 583.828 291.328 581.797L318.203 450.156C318.828 446.875 321.719 444.531 325.078 444.531H337.735C339.844 444.531 341.797 445.469 343.125 447.109C344.453 448.75 345 450.859 344.531 452.891L317.656 584.531C317.031 587.813 314.141 590.156 310.781 590.156H298.125Z" fill="#FFA500"/>
<path d="M337.578 451.563L310.703 583.203H298.047L324.922 451.563H337.578ZM337.578 437.578H324.922C318.281 437.578 312.578 442.266 311.25 448.75L284.375 580.391C283.515 584.531 284.609 588.75 287.265 592.031C289.922 595.312 293.906 597.188 298.125 597.188H310.781C317.422 597.188 323.125 592.5 324.453 586.016L351.328 454.375C352.187 450.234 351.094 446.016 348.437 442.734C345.781 439.453 341.797 437.578 337.578 437.578Z" fill="#151B28"/>
<path d="M528.359 590.156C525 590.156 522.187 587.813 521.484 584.531L494.609 452.891C494.219 450.859 494.687 448.672 496.016 447.109C497.344 445.469 499.297 444.531 501.406 444.531H514.062C517.422 444.531 520.234 446.875 520.937 450.156L547.812 581.797C548.203 583.828 547.734 586.016 546.406 587.578C545.759 588.385 544.938 589.036 544.005 589.482C543.072 589.928 542.05 590.159 541.016 590.156H528.359Z" fill="#FFA500"/>
<path d="M514.219 451.562L541.094 583.203H528.438L501.562 451.562H514.219ZM514.219 437.578H501.562C497.344 437.578 493.359 439.453 490.703 442.734C488.047 446.016 487.031 450.234 487.813 454.375L514.687 586.016C516.016 592.5 521.719 597.188 528.359 597.188H541.016C545.234 597.188 549.219 595.312 551.875 592.031C554.531 588.75 555.547 584.531 554.766 580.391L527.891 448.75C526.563 442.266 520.859 437.578 514.219 437.578ZM419.531 419.297C415.547 419.297 412.266 416.094 412.266 412.031V350.781C412.266 346.797 415.469 343.516 419.531 343.516C423.594 343.516 426.797 346.719 426.797 350.781V412.109C426.797 416.094 423.594 419.297 419.531 419.297ZM360.391 419.297C356.406 419.297 353.125 416.094 353.125 412.031V350.781C353.125 346.797 356.328 343.516 360.391 343.516C364.453 343.516 367.656 346.719 367.656 350.781V412.109C367.656 416.094 364.453 419.297 360.391 419.297ZM478.75 419.297C474.766 419.297 471.484 416.094 471.484 412.031V350.781C471.484 346.797 474.687 343.516 478.75 343.516C482.812 343.516 486.016 346.719 486.016 350.781V412.109C485.937 416.094 482.734 419.297 478.75 419.297Z" fill="#151B28"/>
<path d="M337.188 357.969C309.141 357.969 286.328 335.156 286.328 307.109V260.391C286.328 232.344 309.141 209.531 337.188 209.531H501.875C529.922 209.531 552.734 232.344 552.734 260.391V307.109C552.734 335.156 529.922 357.969 501.875 357.969H337.188Z" fill="white"/>
<path d="M501.875 216.797C525.938 216.797 545.469 236.328 545.469 260.391V307.109C545.469 331.172 525.938 350.703 501.875 350.703H337.188C313.125 350.703 293.594 331.172 293.594 307.109V260.391C293.594 236.328 313.125 216.797 337.188 216.797H501.875ZM501.875 202.344H337.188C305.156 202.344 279.141 228.359 279.141 260.391V307.109C279.141 339.141 305.156 365.156 337.188 365.156H501.875C533.906 365.156 559.922 339.141 559.922 307.109V260.391C560 228.359 533.906 202.344 501.875 202.344Z" fill="#151B28"/>
<path d="M489.531 339.531H367.656C346.016 339.531 328.438 321.953 328.438 300.312V287.188C328.438 265.547 346.016 247.969 367.656 247.969H489.531C511.172 247.969 528.75 265.547 528.75 287.188V300.312C528.672 322.031 511.172 339.531 489.531 339.531Z" fill="#2AEFC8"/>
<path d="M485.938 242.734C502.422 242.734 515.781 256.094 515.781 272.578V295C515.781 311.484 502.422 324.844 485.938 324.844H353.203C336.719 324.844 323.359 311.484 323.359 295V272.578C323.359 256.094 336.719 242.734 353.203 242.734H485.938ZM485.938 235.391H353.203C332.734 235.391 316.016 252.031 316.016 272.578V295C316.016 315.469 332.656 332.188 353.203 332.188H485.938C506.406 332.188 523.125 315.547 523.125 295V272.578C523.125 252.031 506.406 235.391 485.938 235.391Z" fill="#151B28"/>
<path d="M464.375 294.219H374.766C368.984 294.219 364.375 289.531 364.375 283.828C364.375 278.047 369.063 273.438 374.766 273.438H464.453C470.234 273.438 474.844 278.125 474.844 283.828C474.766 289.531 470.156 294.219 464.375 294.219ZM284.063 458.828C271.016 458.828 260.391 448.203 260.391 435.156V431.406C260.391 418.359 271.016 407.734 284.063 407.734H555.078C568.125 407.734 578.75 418.359 578.75 431.406V435.156C578.75 448.203 568.125 458.828 555.078 458.828H284.063Z" fill="white"/>
<path d="M555.078 414.844C564.141 414.844 571.562 422.187 571.562 431.328V435.078C571.562 444.141 564.219 451.562 555.078 451.562H284.063C275 451.562 267.578 444.219 267.578 435.078V431.328C267.578 422.266 274.922 414.844 284.063 414.844H555.078ZM555.078 400.391H284.063C267.031 400.391 253.125 414.297 253.125 431.328V435.078C253.125 452.109 267.031 466.016 284.063 466.016H555.078C572.109 466.016 586.016 452.109 586.016 435.078V431.328C586.016 414.297 572.109 400.391 555.078 400.391Z" fill="#151B28"/>
<path d="M544.453 439.687H294.688C291.172 439.687 288.281 436.797 288.281 433.281C288.281 429.766 291.172 426.875 294.688 426.875H544.375C547.891 426.875 550.781 429.766 550.781 433.281C550.859 436.797 547.969 439.687 544.453 439.687Z" fill="#2AEFC8"/>
</svg>
