<svg width="800" height="800" viewBox="0 0 800 800" fill="none" xmlns="http://www.w3.org/2000/svg">
<path d="M571.953 311.953C417.656 278.125 544.141 64.1406 332.734 81.8749C121.328 99.6093 -79.1405 586.406 296.172 700.391C671.484 814.375 864.922 376.172 571.953 311.953Z" fill="#FFA500"/>
<path d="M459.922 241.797C469.844 241.797 477.891 249.844 477.891 259.766V303.047C477.891 312.969 469.844 321.016 459.922 321.016H394.766C384.844 321.016 376.797 312.969 376.797 303.047V259.766C376.797 249.844 384.844 241.797 394.766 241.797H459.922ZM459.922 227.344H394.766C376.875 227.344 362.266 241.875 362.266 259.844V303.125C362.266 321.016 376.797 335.625 394.766 335.625H459.922C477.812 335.625 492.422 321.094 492.422 303.125V259.844C492.344 241.875 477.812 227.344 459.922 227.344Z" fill="#151B28"/>
<path d="M256.484 534.766C242.656 534.766 231.406 523.516 231.406 509.688V295.313C231.406 281.484 242.656 270.234 256.484 270.234H598.203C612.031 270.234 623.281 281.484 623.281 295.313V509.688C623.281 523.516 612.031 534.766 598.203 534.766H256.484Z" fill="white"/>
<path d="M598.203 277.422C608.047 277.422 616.094 285.391 616.094 295.312V509.688C616.094 519.609 608.047 527.578 598.203 527.578H256.484C246.641 527.578 238.594 519.609 238.594 509.688V295.312C238.594 285.391 246.641 277.422 256.484 277.422H598.203ZM598.203 262.969H256.484C238.672 262.969 224.141 277.5 224.141 295.312V509.688C224.141 527.5 238.672 542.031 256.484 542.031H598.203C616.016 542.031 630.547 527.5 630.547 509.688V295.312C630.547 277.5 616.016 262.969 598.203 262.969Z" fill="#151B28"/>
<path d="M618.203 312.578V512.969C618.203 522.266 610.703 529.687 601.484 529.687H281.953C272.734 529.687 265.234 522.266 265.234 512.969V312.578C265.234 303.281 272.734 295.859 281.953 295.859H601.406C610.703 295.859 618.203 303.281 618.203 312.578Z" fill="#2AEFC8"/>
<path d="M238.594 477.656C266.172 477.656 288.438 500 288.438 527.5H256.406C246.563 527.5 238.516 519.531 238.516 509.609V477.656M238.594 470.313C234.531 470.313 231.25 473.594 231.25 477.656V509.688C231.25 523.594 242.578 534.922 256.484 534.922H288.516C292.578 534.922 295.859 531.641 295.859 527.578C295.781 495.938 270.156 470.313 238.594 470.313ZM616.016 477.656V509.688C616.016 519.609 607.969 527.578 598.125 527.578H566.094C566.172 499.922 588.516 477.656 616.016 477.656ZM616.016 470.313C584.453 470.313 558.75 496.016 558.75 527.578C558.75 531.641 562.031 534.922 566.094 534.922H598.125C612.031 534.922 623.359 523.594 623.359 509.688V477.656C623.438 473.594 620.078 470.313 616.016 470.313ZM288.438 277.891C288.438 305.469 266.094 327.734 238.594 327.734V295.703C238.594 285.781 246.641 277.813 256.484 277.813H288.438M288.438 270.547H256.406C242.5 270.547 231.172 281.875 231.172 295.781V327.813C231.172 331.875 234.453 335.156 238.516 335.156C270 335.156 295.625 309.609 295.781 278.125V277.969C295.781 273.828 292.5 270.547 288.438 270.547ZM598.203 277.891C608.047 277.891 616.094 285.859 616.094 295.781V327.813C588.516 327.813 566.25 305.469 566.25 277.969H598.203M598.203 270.547H566.172C562.109 270.547 558.828 273.828 558.828 277.891C558.828 309.453 584.531 335.156 616.094 335.156C620.156 335.156 623.438 331.875 623.438 327.813V295.781C623.438 281.875 612.109 270.547 598.203 270.547Z" fill="#151B28"/>
<path d="M351.016 492.656C345.937 492.656 341.797 488.516 341.797 483.437V328.516C341.797 323.437 345.937 319.297 351.016 319.297C356.094 319.297 360.234 323.437 360.234 328.516V483.437C360.234 488.516 356.094 492.656 351.016 492.656Z" fill="#FFA500"/>
<path d="M351.016 322.969C354.063 322.969 356.563 325.469 356.563 328.516V483.437C356.563 486.484 354.063 488.984 351.016 488.984C347.969 488.984 345.469 486.484 345.469 483.437V328.516C345.469 325.469 347.891 322.969 351.016 322.969ZM351.016 315.625C343.906 315.625 338.125 321.406 338.125 328.516V483.437C338.125 490.547 343.906 496.328 351.016 496.328C358.125 496.328 363.906 490.547 363.906 483.437V328.516C363.906 321.406 358.125 315.625 351.016 315.625Z" fill="#151B28"/>
<path d="M427.344 492.656C422.266 492.656 418.125 488.516 418.125 483.437V328.516C418.125 323.437 422.266 319.297 427.344 319.297C432.422 319.297 436.562 323.437 436.562 328.516V483.437C436.562 488.516 432.422 492.656 427.344 492.656Z" fill="#FFA500"/>
<path d="M427.344 322.969C430.391 322.969 432.891 325.469 432.891 328.516V483.437C432.891 486.484 430.391 488.984 427.344 488.984C424.297 488.984 421.797 486.484 421.797 483.437V328.516C421.797 325.469 424.219 322.969 427.344 322.969ZM427.344 315.625C420.234 315.625 414.453 321.406 414.453 328.516V483.437C414.453 490.547 420.234 496.328 427.344 496.328C434.453 496.328 440.234 490.547 440.234 483.437V328.516C440.234 321.406 434.453 315.625 427.344 315.625Z" fill="#151B28"/>
<path d="M503.672 492.656C498.594 492.656 494.453 488.516 494.453 483.437V328.516C494.453 323.437 498.594 319.297 503.672 319.297C508.75 319.297 512.891 323.437 512.891 328.516V483.437C512.891 488.516 508.75 492.656 503.672 492.656Z" fill="#FFA500"/>
<path d="M503.672 322.969C506.719 322.969 509.219 325.469 509.219 328.516V483.437C509.219 486.484 506.719 488.984 503.672 488.984C500.625 488.984 498.125 486.484 498.125 483.437V328.516C498.047 325.469 500.547 322.969 503.672 322.969ZM503.672 315.625C496.562 315.625 490.781 321.406 490.781 328.516V483.437C490.781 490.547 496.562 496.328 503.672 496.328C510.781 496.328 516.562 490.547 516.562 483.437V328.516C516.562 321.406 510.781 315.625 503.672 315.625Z" fill="#151B28"/>
</svg>
