<svg width="800" height="800" viewBox="0 0 800 800" fill="none" xmlns="http://www.w3.org/2000/svg">
<path d="M571.953 311.953C417.656 278.125 544.141 64.1406 332.734 81.875C121.328 99.6094 -79.1405 586.406 296.172 700.391C671.484 814.375 864.922 376.172 571.953 311.953Z" fill="#FFA500"/>
<path d="M325.86 653.359C309.063 653.359 292.813 648.359 278.828 638.984L260.703 626.875C222.031 600.859 211.641 548.203 237.656 509.531L381.875 294.688L413.828 316.172C414.453 316.563 415.156 316.797 415.86 316.797C416.094 316.797 416.328 316.797 416.563 316.719C417.5 316.562 418.36 315.937 418.906 315.156L454.219 262.5L541.25 320.937L505.938 373.594C505.391 374.375 505.156 375.391 505.391 376.328C505.547 377.266 506.172 378.125 506.953 378.672L540.313 401.016C540.313 401.016 395.938 616.094 395.938 616.172C388.202 627.642 377.764 637.033 365.543 643.517C353.322 650.002 339.694 653.382 325.86 653.359Z" fill="black"/>
<path d="M432.469 323.546L458.55 284.69L519.136 325.356L493.055 364.212L432.469 323.546Z" fill="white"/>
<path d="M445.771 332.369L465.097 303.564L512.391 335.296L493.064 364.101L445.771 332.369Z" fill="#FFA500"/>
<path d="M301.406 632.891C302.266 629.063 303.75 625.313 306.094 621.797C311.165 614.251 319.023 609.026 327.944 607.268C336.864 605.51 346.117 607.364 353.672 612.422C358.672 615.781 362.266 620.234 364.844 625.234C355.678 631.548 345.117 635.543 334.068 636.876C323.019 638.21 311.811 636.842 301.406 632.891Z" fill="white"/>
<path d="M382.89 607.031C381.875 608.516 380.781 609.922 379.687 611.328C375.763 605.293 370.661 600.111 364.687 596.094C352.809 588.137 338.26 585.214 324.23 587.968C310.2 590.721 297.834 598.925 289.844 610.781C287.187 614.688 285.234 618.828 283.75 623.047L269.609 613.594C238.203 592.422 229.765 549.844 250.859 518.359L386.25 316.641L518.281 405.234L382.89 607.031Z" fill="white"/>
<path d="M373.984 594.453C373.203 595.625 372.265 596.797 371.406 597.891C368.359 593.203 364.297 589.063 359.375 585.703C349.862 579.33 338.208 576.993 326.973 579.205C315.739 581.417 305.841 587.997 299.453 597.5C297.344 600.625 295.781 603.984 294.609 607.344L283.281 599.766C271.196 591.631 262.831 579.035 260.019 564.741C257.207 550.448 260.178 535.622 268.281 523.516L376.719 361.953L482.5 432.969L373.984 594.453Z" fill="#2AEFC8"/>
<path d="M572.734 321.25C572.578 321.094 572.422 320.938 572.188 320.859L440.156 232.266C440 232.109 439.766 232.031 439.609 231.953L426.875 223.438L444.922 196.563C460.703 173.125 486.953 159.141 515.234 159.141C532.031 159.141 548.281 164.141 562.266 173.516L580.391 185.625C619.062 211.641 629.453 264.219 603.438 302.969L585.391 329.844L572.734 321.25Z" fill="black"/>
<path d="M458.125 205.391C479.297 173.984 521.875 165.547 553.359 186.641L571.484 198.75C602.891 219.922 611.25 262.5 590.234 293.984L581.094 307.578L449.062 218.984L458.125 205.391Z" fill="white"/>
<path d="M558.672 207.188C543.555 197.051 525.031 193.332 507.173 196.848C489.315 200.364 473.584 210.827 463.438 225.938L462.188 227.891L581.094 307.734L590.234 294.141C599.117 280.97 603.098 265.101 601.484 249.297C596.484 237.578 588.125 227.031 576.797 219.375L558.672 207.188Z" fill="#2AEFC8"/>
</svg>
