<svg width="800" height="800" viewBox="0 0 800 800" fill="none" xmlns="http://www.w3.org/2000/svg">
<path d="M571.953 311.953C417.656 278.125 544.141 64.1406 332.734 81.875C121.328 99.6094 -79.1405 586.406 296.172 700.391C671.484 814.375 864.922 376.172 571.953 311.953Z" fill="#FFA500"/>
<circle cx="296" cy="420" r="15" fill="white"/>
<path d="M479.152 212.5C510.206 212.5 537.279 233.624 544.829 263.745L552.854 295.833H571.875C579.785 295.833 586.323 301.711 587.358 309.338L587.5 311.458C587.5 319.369 581.621 325.906 573.996 326.941L571.875 327.083H560.708L565.042 344.302C578.558 352.527 587.585 367.396 587.585 384.375V561.392C587.585 581.527 571.262 597.85 551.127 597.85H519.792C499.656 597.85 483.333 581.527 483.333 561.392L483.312 535.417H316.75L316.752 561.392C316.752 581.527 300.429 597.85 280.293 597.85H248.958C228.823 597.85 212.5 581.527 212.5 561.392V384.375C212.5 367.4 221.524 352.531 235.037 344.305L239.354 327.083H228.125C220.215 327.083 213.677 321.205 212.643 313.579L212.5 311.458C212.5 303.548 218.378 297.011 226.005 295.976L228.125 295.833H247.146L255.187 263.787C262.723 233.645 289.805 212.5 320.874 212.5H479.152ZM285.5 535.417H243.729L243.75 561.392C243.75 564.267 246.082 566.6 248.958 566.6H280.293C283.17 566.6 285.502 564.267 285.502 561.392L285.5 535.417ZM556.333 535.417H514.562L514.583 561.392C514.583 564.267 516.915 566.6 519.792 566.6H551.127C554.004 566.6 556.335 564.267 556.335 561.392L556.333 535.417ZM436.473 441.667H363.521L361.4 441.808C353.774 442.844 347.896 449.381 347.896 457.292C347.896 465.202 353.774 471.74 361.4 472.775L363.521 472.917H436.473L438.594 472.775C446.221 471.74 452.098 465.202 452.098 457.292C452.098 448.662 445.104 441.667 436.473 441.667ZM504.167 400C492.66 400 483.333 409.327 483.333 420.833C483.333 432.337 492.66 441.665 504.167 441.665C515.671 441.665 524.998 432.337 524.998 420.833C524.998 409.327 515.671 400 504.167 400ZM295.833 400C284.327 400 275 409.327 275 420.833C275 432.337 284.327 441.665 295.833 441.665C307.339 441.665 316.666 432.337 316.666 420.833C316.666 409.327 307.339 400 295.833 400ZM479.152 243.75H320.874C304.144 243.75 289.561 255.136 285.504 271.366L268.97 337.5H531.102L514.517 271.343C510.452 255.124 495.873 243.75 479.152 243.75Z" fill="#2AEFC8" stroke="black" stroke-width="18"/>
<circle cx="507" cy="420" r="15" fill="white"/>
</svg>
