<svg width="150" height="150" viewBox="0 0 150 150" fill="none" xmlns="http://www.w3.org/2000/svg">
<path d="M107.241 58.4912C78.3106 52.1484 102.026 12.0264 62.3877 15.3516C22.749 18.6768 -14.8388 109.951 55.5322 131.323C125.903 152.695 162.173 70.5322 107.241 58.4912Z" fill="#FFA500"/>
<path d="M40.5469 65.8887C40.5469 71.3086 44.9414 75.6885 50.3467 75.6885H97.0752C98.4814 75.6885 99.624 76.8311 99.624 78.2373V112.617C99.624 114.023 98.4814 115.166 97.0752 115.166H57.0264C47.915 115.166 40.5469 107.783 40.5469 98.6865V64.79" fill="white"/>
<path d="M97.0898 116.528H57.0264C47.1826 116.528 39.1846 108.53 39.1846 98.6865V64.79C39.1846 64.043 39.7852 63.4277 40.5469 63.4277C41.3086 63.4277 41.9092 64.0283 41.9092 64.79V65.9033C41.9092 70.5615 45.7031 74.3555 50.3613 74.3555H97.0898C99.2432 74.3555 100.986 76.1133 100.986 78.252V112.632C100.986 114.771 99.2432 116.528 97.0898 116.528ZM41.9092 73.1836V98.6865C41.9092 107.036 48.6914 113.818 57.041 113.818H97.0898C97.749 113.818 98.2764 113.291 98.2764 112.632V78.252C98.2764 77.5928 97.749 77.0654 97.0898 77.0654H50.3613C48.7562 77.0641 47.1703 76.7167 45.7117 76.0468C44.2531 75.3769 42.9561 74.4003 41.9092 73.1836Z" fill="#151B28"/>
<path d="M97.0898 116.528H57.0264C47.1826 116.528 39.1846 108.53 39.1846 98.6865V65.4932C39.1846 59.5459 44.0332 54.6973 49.9805 54.6973H96.8115C97.5586 54.6973 98.1738 55.2979 98.1738 56.0596C98.1738 56.8213 97.5732 57.4219 96.8115 57.4219H49.9805C45.5273 57.4219 41.8945 61.0547 41.8945 65.5078V65.9033C41.8945 70.5615 45.6885 74.3555 50.3467 74.3555H97.0752C99.2285 74.3555 100.972 76.1133 100.972 78.252V112.632C100.974 113.143 100.875 113.649 100.68 114.122C100.486 114.595 100.201 115.024 99.8399 115.386C99.4793 115.748 99.0507 116.035 98.5787 116.231C98.1068 116.427 97.6008 116.528 97.0898 116.528ZM41.9092 73.1836V98.6865C41.9092 107.036 48.6914 113.818 57.041 113.818H97.0898C97.749 113.818 98.2764 113.291 98.2764 112.632V78.252C98.2764 77.5928 97.749 77.0654 97.0898 77.0654H50.3613C48.7562 77.0641 47.1703 76.7167 45.7117 76.0468C44.2531 75.3769 42.9561 74.4003 41.9092 73.1836Z" fill="#151B28"/>
<path d="M86.3232 75.7324H56.3525V46.9189C56.3525 45.4248 57.5684 44.2236 59.0479 44.2236H83.6133C85.1074 44.2236 86.3086 45.4395 86.3086 46.9189V75.7324H86.3232Z" fill="#2AEFC8"/>
<path d="M86.3232 76.9775H56.3525C56.0223 76.9775 55.7056 76.8464 55.4721 76.6129C55.2386 76.3794 55.1074 76.0626 55.1074 75.7324V46.9189C55.1074 44.751 56.8799 42.9785 59.0479 42.9785H83.6133C85.7812 42.9785 87.5537 44.751 87.5537 46.9189V75.7324C87.5684 76.4209 87.0117 76.9775 86.3232 76.9775ZM57.5977 74.4873H85.0928V46.9189C85.0928 46.1133 84.4336 45.4541 83.6279 45.4541H59.0479C58.2422 45.4541 57.583 46.1133 57.583 46.9189V74.4873H57.5977Z" fill="#151B28"/>
<path d="M61.8457 45.0732H68.4229V74.8535H61.8457V45.0732Z" fill="white"/>
<path d="M68.4229 75.542H61.8457C61.6592 75.542 61.4804 75.4679 61.3485 75.3361C61.2167 75.2042 61.1426 75.0253 61.1426 74.8389V45.0732C61.1426 44.6924 61.4502 44.3701 61.8457 44.3701H68.4229C68.8037 44.3701 69.126 44.6777 69.126 45.0732V74.8535C69.126 75.2344 68.8037 75.542 68.4229 75.542ZM62.5488 74.1504H67.7344V45.7617H62.5488V74.1504ZM73.4766 48.0762H75.7471V54.3018H73.4766V48.0762ZM73.4766 56.5576H75.7471V71.8652H73.4766V56.5576ZM79.4238 48.0762H81.6943V71.8652H79.4238V48.0762Z" fill="#151B28"/>
<path d="M101.675 86.25H76.3916C72.6269 86.25 69.2725 89.0039 68.9209 92.7393C68.5107 97.0312 71.8799 100.649 76.084 100.649H101.675C102.524 100.649 103.198 99.9609 103.198 99.126V87.7734C103.198 86.9385 102.524 86.25 101.675 86.25Z" fill="#FFA500"/>
<path d="M101.675 101.968H76.084C73.6963 101.968 71.3965 100.957 69.7852 99.1846C68.9859 98.3025 68.3801 97.263 68.0067 96.1327C67.6334 95.0025 67.5007 93.8066 67.6172 92.6221C68.0274 88.3154 71.8799 84.9463 76.4063 84.9463H101.689C103.257 84.9463 104.531 86.2207 104.531 87.7881V99.1406C104.517 100.693 103.242 101.968 101.675 101.968ZM76.3916 87.5684C73.2129 87.5684 70.5029 89.8975 70.2246 92.8711C70.1389 93.6918 70.2292 94.5213 70.4894 95.3043C70.7495 96.0873 71.1736 96.8059 71.7334 97.4121C72.2863 98.0206 72.9601 98.5069 73.7118 98.8399C74.4635 99.1729 75.2765 99.3451 76.0986 99.3457H101.689C101.807 99.3457 101.909 99.2432 101.909 99.126V87.7734C101.909 87.6562 101.807 87.5537 101.689 87.5537L76.3916 87.5684Z" fill="#151B28"/>
<path d="M73.3154 93.457C73.3154 94.3428 73.6673 95.1923 74.2936 95.8187C74.92 96.445 75.7695 96.7969 76.6553 96.7969C77.5411 96.7969 78.3906 96.445 79.0169 95.8187C79.6432 95.1923 79.9951 94.3428 79.9951 93.457C79.9951 92.5712 79.6432 91.7217 79.0169 91.0954C78.3906 90.4691 77.5411 90.1172 76.6553 90.1172C75.7695 90.1172 74.92 90.4691 74.2936 91.0954C73.6673 91.7217 73.3154 92.5712 73.3154 93.457Z" fill="white"/>
</svg>
