<svg width="800" height="800" viewBox="0 0 800 800" fill="none" xmlns="http://www.w3.org/2000/svg">
<path d="M571.953 311.953C417.656 278.125 544.141 64.1406 332.734 81.875C121.328 99.6094 -79.1405 586.406 296.172 700.391C671.484 814.375 864.922 376.172 571.953 311.953Z" fill="#FFA500"/>
<path d="M289.063 591.328C282.578 591.328 276.875 586.875 275.391 580.547L268.906 554.063C268.36 551.953 268.906 549.766 270.156 548.047C270.803 547.214 271.633 546.542 272.581 546.081C273.53 545.621 274.571 545.384 275.625 545.391H524.297C526.406 545.391 528.438 546.406 529.766 548.047C531.094 549.766 531.563 551.953 531.016 554.063L524.531 580.547C522.969 586.875 517.344 591.328 510.86 591.328H289.063Z" fill="#FFA500"/>
<path d="M524.375 552.422L517.891 578.906C517.505 580.455 516.609 581.828 515.348 582.806C514.087 583.784 512.533 584.309 510.937 584.297H289.062C285.781 584.297 282.891 582.031 282.109 578.906L275.625 552.422H524.375ZM524.375 538.438H275.625C271.328 538.438 267.266 540.391 264.609 543.828C261.953 547.187 261.016 551.641 262.031 555.781L268.516 582.266C270.859 591.719 279.297 598.359 288.984 598.359H510.937C520.703 598.359 529.141 591.719 531.406 582.266L537.891 555.781C538.906 551.641 537.969 547.187 535.312 543.828C532.656 540.469 528.672 538.438 524.375 538.438Z" fill="#151B28"/>
<path d="M528.516 565.547H271.484C261.484 565.547 253.438 557.5 253.438 547.5V226.953C253.438 216.953 261.484 208.906 271.484 208.906H528.516C538.516 208.906 546.563 216.953 546.563 226.953V547.5C546.563 557.5 538.438 565.547 528.516 565.547Z" fill="white"/>
<path d="M528.516 572.813H271.484C257.578 572.813 246.172 561.484 246.172 547.5V226.953C246.172 213.047 257.5 201.641 271.484 201.641H528.516C542.422 201.641 553.828 212.969 553.828 226.953V547.5C553.75 561.484 542.422 572.813 528.516 572.813ZM271.484 216.094C265.547 216.094 260.703 220.937 260.703 226.875V547.422C260.703 553.359 265.547 558.203 271.484 558.203H528.516C534.453 558.203 539.297 553.359 539.297 547.422V226.953C539.297 221.016 534.453 216.172 528.516 216.172H271.484V216.094Z" fill="#151B28"/>
<path d="M523.75 549.609H305.625C303.843 549.609 302.134 548.902 300.874 547.642C299.614 546.382 298.906 544.673 298.906 542.891V263.672C298.906 259.922 301.953 256.953 305.625 256.953H523.75C527.5 256.953 530.469 260 530.469 263.672V542.891C530.469 546.641 527.5 549.609 523.75 549.609Z" fill="#2AEFC8"/>
<path d="M510.859 238.75C514.609 238.75 517.656 241.797 517.656 245.547V528.828C517.656 532.578 514.609 535.625 510.859 535.625H289.141C287.338 535.625 285.609 534.909 284.335 533.634C283.06 532.36 282.344 530.631 282.344 528.828V245.547C282.344 241.797 285.391 238.75 289.141 238.75H510.859ZM510.859 231.406H289.141C281.328 231.406 275 237.734 275 245.547V528.828C275 536.641 281.328 542.969 289.141 542.969H510.859C518.672 542.969 525 536.641 525 528.828V245.547C525.078 237.734 518.672 231.406 510.859 231.406Z" fill="#151B28"/>
<path d="M400 539.922C399.026 539.922 398.092 539.535 397.404 538.846C396.715 538.158 396.328 537.224 396.328 536.25V238.75C396.328 237.776 396.715 236.842 397.404 236.154C398.092 235.465 399.026 235.078 400 235.078C400.974 235.078 401.908 235.465 402.596 236.154C403.285 236.842 403.672 237.776 403.672 238.75V536.25C403.672 538.281 402.031 539.922 400 539.922Z" fill="#151B28"/>
<path d="M365.938 391.875C359.844 391.875 354.922 386.953 354.922 380.859C354.922 374.766 359.844 369.844 365.938 369.844C372.031 369.844 376.953 374.766 376.953 380.859C376.953 386.953 371.953 391.875 365.938 391.875Z" fill="#FFA500"/>
<path d="M365.937 373.516C367.885 373.516 369.753 374.289 371.13 375.667C372.508 377.044 373.281 378.912 373.281 380.859C373.281 382.807 372.508 384.675 371.13 386.052C369.753 387.429 367.885 388.203 365.937 388.203C363.99 388.203 362.122 387.429 360.745 386.052C359.367 384.675 358.594 382.807 358.594 380.859C358.594 378.912 359.367 377.044 360.745 375.667C362.122 374.289 363.99 373.516 365.937 373.516ZM365.937 366.172C357.891 366.172 351.25 372.734 351.25 380.859C351.25 388.984 357.812 395.547 365.937 395.547C374.062 395.547 380.625 388.984 380.625 380.859C380.625 372.734 373.984 366.172 365.937 366.172Z" fill="#151B28"/>
<path d="M434.062 391.875C427.969 391.875 423.047 386.953 423.047 380.859C423.047 374.766 427.969 369.844 434.062 369.844C440.156 369.844 445.078 374.766 445.078 380.859C445.078 386.953 440.156 391.875 434.062 391.875Z" fill="#FFA500"/>
<path d="M434.062 373.516C436.01 373.516 437.878 374.289 439.255 375.667C440.633 377.044 441.406 378.912 441.406 380.859C441.406 382.807 440.633 384.675 439.255 386.052C437.878 387.429 436.01 388.203 434.062 388.203C430 388.203 426.719 384.922 426.719 380.859C426.797 376.797 430.078 373.516 434.062 373.516ZM434.062 366.172C426.016 366.172 419.375 372.734 419.375 380.859C419.375 388.984 425.937 395.547 434.062 395.547C442.109 395.547 448.75 388.984 448.75 380.859C448.75 372.734 442.187 366.172 434.062 366.172Z" fill="#151B28"/>
</svg>
